<svg width="2340" height="1224" viewBox="0 0 2340 1224" fill="none" xmlns="http://www.w3.org/2000/svg">
<path d="M1028.28 530.36C1022.64 536.84 1015.68 542 1007.4 545.84C999.12 549.56 989.58 551.42 978.78 551.42C968.94 551.42 959.82 549.8 951.42 546.56C943.14 543.32 935.94 538.76 929.82 532.88C923.7 526.88 918.9 519.74 915.42 511.46C911.94 503.18 910.2 494.06 910.2 484.1C910.2 473.9 911.94 464.66 915.42 456.38C919.02 448.1 923.94 441.08 930.18 435.32C936.42 429.44 943.74 424.94 952.14 421.82C960.54 418.7 969.6 417.14 979.32 417.14C988.32 417.14 997.14 418.76 1005.78 422C1014.54 425.12 1021.62 429.74 1027.02 435.86L1006.14 456.74C1003.26 452.78 999.48 449.84 994.8 447.92C990.12 446 985.32 445.04 980.4 445.04C975 445.04 970.02 446.06 965.46 448.1C961.02 450.02 957.18 452.72 953.94 456.2C950.7 459.68 948.18 463.82 946.38 468.62C944.58 473.3 943.68 478.46 943.68 484.1C943.68 489.86 944.58 495.14 946.38 499.94C948.18 504.74 950.64 508.88 953.76 512.36C957 515.72 960.84 518.36 965.28 520.28C969.72 522.2 974.58 523.16 979.86 523.16C985.98 523.16 991.32 521.96 995.88 519.56C1000.44 517.16 1004.1 514.04 1006.86 510.2L1028.28 530.36ZM1221.7 483.74C1221.7 493.82 1219.96 503.06 1216.48 511.46C1213 519.74 1208.14 526.88 1201.9 532.88C1195.78 538.76 1188.46 543.32 1179.94 546.56C1171.42 549.8 1162.18 551.42 1152.22 551.42C1142.26 551.42 1133.02 549.8 1124.5 546.56C1116.1 543.32 1108.78 538.76 1102.54 532.88C1096.42 526.88 1091.62 519.74 1088.14 511.46C1084.66 503.06 1082.92 493.82 1082.92 483.74C1082.92 473.54 1084.66 464.36 1088.14 456.2C1091.62 447.92 1096.42 440.9 1102.54 435.14C1108.78 429.38 1116.1 424.94 1124.5 421.82C1133.02 418.7 1142.26 417.14 1152.22 417.14C1162.18 417.14 1171.42 418.7 1179.94 421.82C1188.46 424.94 1195.78 429.38 1201.9 435.14C1208.14 440.9 1213 447.92 1216.48 456.2C1219.96 464.36 1221.7 473.54 1221.7 483.74ZM1188.76 483.74C1188.76 478.22 1187.86 473.06 1186.06 468.26C1184.26 463.46 1181.74 459.38 1178.5 456.02C1175.38 452.54 1171.54 449.84 1166.98 447.92C1162.54 445.88 1157.62 444.86 1152.22 444.86C1146.82 444.86 1141.9 445.88 1137.46 447.92C1133.02 449.84 1129.18 452.54 1125.94 456.02C1122.7 459.38 1120.18 463.46 1118.38 468.26C1116.7 473.06 1115.86 478.22 1115.86 483.74C1115.86 489.5 1116.76 494.84 1118.56 499.76C1120.36 504.56 1122.82 508.7 1125.94 512.18C1129.18 515.66 1133.02 518.42 1137.46 520.46C1141.9 522.38 1146.82 523.34 1152.22 523.34C1157.62 523.34 1162.54 522.38 1166.98 520.46C1171.42 518.42 1175.26 515.66 1178.5 512.18C1181.74 508.7 1184.26 504.56 1186.06 499.76C1187.86 494.84 1188.76 489.5 1188.76 483.74ZM1291.47 548V420.56H1322.43V521.18H1371.75V548H1291.47ZM1563.11 483.74C1563.11 493.82 1561.37 503.06 1557.89 511.46C1554.41 519.74 1549.55 526.88 1543.31 532.88C1537.19 538.76 1529.87 543.32 1521.35 546.56C1512.83 549.8 1503.59 551.42 1493.63 551.42C1483.67 551.42 1474.43 549.8 1465.91 546.56C1457.51 543.32 1450.19 538.76 1443.95 532.88C1437.83 526.88 1433.03 519.74 1429.55 511.46C1426.07 503.06 1424.33 493.82 1424.33 483.74C1424.33 473.54 1426.07 464.36 1429.55 456.2C1433.03 447.92 1437.83 440.9 1443.95 435.14C1450.19 429.38 1457.51 424.94 1465.91 421.82C1474.43 418.7 1483.67 417.14 1493.63 417.14C1503.59 417.14 1512.83 418.7 1521.35 421.82C1529.87 424.94 1537.19 429.38 1543.31 435.14C1549.55 440.9 1554.41 447.92 1557.89 456.2C1561.37 464.36 1563.11 473.54 1563.11 483.74ZM1530.17 483.74C1530.17 478.22 1529.27 473.06 1527.47 468.26C1525.67 463.46 1523.15 459.38 1519.91 456.02C1516.79 452.54 1512.95 449.84 1508.39 447.92C1503.95 445.88 1499.03 444.86 1493.63 444.86C1488.23 444.86 1483.31 445.88 1478.87 447.92C1474.43 449.84 1470.59 452.54 1467.35 456.02C1464.11 459.38 1461.59 463.46 1459.79 468.26C1458.11 473.06 1457.27 478.22 1457.27 483.74C1457.27 489.5 1458.17 494.84 1459.97 499.76C1461.77 504.56 1464.23 508.7 1467.35 512.18C1470.59 515.66 1474.43 518.42 1478.87 520.46C1483.31 522.38 1488.23 523.34 1493.63 523.34C1499.03 523.34 1503.95 522.38 1508.39 520.46C1512.83 518.42 1516.67 515.66 1519.91 512.18C1523.15 508.7 1525.67 504.56 1527.47 499.76C1529.27 494.84 1530.17 489.5 1530.17 483.74ZM1713.87 548L1662.57 464.66H1662.03L1662.75 548H1632.87V420.56H1667.97L1719.09 503.72H1719.63L1718.91 420.56H1748.79V548H1713.87ZM1886.5 494V548H1855.72V494L1807.84 420.56H1845.1L1872.28 467.72L1899.46 420.56H1935.46L1886.5 494ZM983.46 699.68C980.82 696.32 977.34 693.68 973.02 691.76C968.82 689.72 964.74 688.7 960.78 688.7C958.74 688.7 956.64 688.88 954.48 689.24C952.44 689.6 950.58 690.32 948.9 691.4C947.22 692.36 945.78 693.68 944.58 695.36C943.5 696.92 942.96 698.96 942.96 701.48C942.96 703.64 943.38 705.44 944.22 706.88C945.18 708.32 946.5 709.58 948.18 710.66C949.98 711.74 952.08 712.76 954.48 713.72C956.88 714.56 959.58 715.46 962.58 716.42C966.9 717.86 971.4 719.48 976.08 721.28C980.76 722.96 985.02 725.24 988.86 728.12C992.7 731 995.88 734.6 998.4 738.92C1000.92 743.12 1002.18 748.4 1002.18 754.76C1002.18 762.08 1000.8 768.44 998.04 773.84C995.4 779.12 991.8 783.5 987.24 786.98C982.68 790.46 977.46 793.04 971.58 794.72C965.7 796.4 959.64 797.24 953.4 797.24C944.28 797.24 935.46 795.68 926.94 792.56C918.42 789.32 911.34 784.76 905.7 778.88L925.86 758.36C928.98 762.2 933.06 765.44 938.1 768.08C943.26 770.6 948.36 771.86 953.4 771.86C955.68 771.86 957.9 771.62 960.06 771.14C962.22 770.66 964.08 769.88 965.64 768.8C967.32 767.72 968.64 766.28 969.6 764.48C970.56 762.68 971.04 760.52 971.04 758C971.04 755.6 970.44 753.56 969.24 751.88C968.04 750.2 966.3 748.7 964.02 747.38C961.86 745.94 959.1 744.68 955.74 743.6C952.5 742.4 948.78 741.14 944.58 739.82C940.5 738.5 936.48 736.94 932.52 735.14C928.68 733.34 925.2 731.06 922.08 728.3C919.08 725.42 916.62 722 914.7 718.04C912.9 713.96 912 709.04 912 703.28C912 696.2 913.44 690.14 916.32 685.1C919.2 680.06 922.98 675.92 927.66 672.68C932.34 669.44 937.62 667.1 943.5 665.66C949.38 664.1 955.32 663.32 961.32 663.32C968.52 663.32 975.84 664.64 983.28 667.28C990.84 669.92 997.44 673.82 1003.08 678.98L983.46 699.68ZM1190.97 729.92C1190.97 741.08 1188.87 750.74 1184.67 758.9C1180.59 766.94 1175.13 773.6 1168.29 778.88C1161.57 784.04 1153.95 787.88 1145.43 790.4C1136.91 792.8 1128.27 794 1119.51 794H1071.99V666.56H1118.07C1127.07 666.56 1135.95 667.64 1144.71 669.8C1153.47 671.84 1161.27 675.32 1168.11 680.24C1174.95 685.04 1180.47 691.52 1184.67 699.68C1188.87 707.84 1190.97 717.92 1190.97 729.92ZM1158.93 729.92C1158.93 722.72 1157.73 716.78 1155.33 712.1C1153.05 707.3 1149.93 703.52 1145.97 700.76C1142.13 697.88 1137.69 695.84 1132.65 694.64C1127.73 693.44 1122.63 692.84 1117.35 692.84H1102.05V767.36H1116.63C1122.15 767.36 1127.43 766.76 1132.47 765.56C1137.63 764.24 1142.13 762.14 1145.97 759.26C1149.93 756.38 1153.05 752.54 1155.33 747.74C1157.73 742.94 1158.93 737 1158.93 729.92ZM1338.82 794L1291.48 735.32H1291.12V794H1260.88V666.56H1291.12V718.4H1291.66L1337.2 666.56H1375.72L1320.82 725.24L1378.96 794H1338.82Z" fill="#19A582"/>
<circle cx="491.162" cy="513.162" r="93.1623" fill="#19A582"/>
<rect x="720.795" y="471.207" width="83.9133" height="83.9133" transform="rotate(90 720.795 471.207)" fill="#19A582" stroke="#00284B" stroke-width="16"/>
<circle cx="678.836" cy="700.836" r="93.1623" fill="#19A582"/>
<rect x="533.12" y="658.883" width="83.9133" height="83.9133" transform="rotate(90 533.12 658.883)" fill="#19A582" stroke="#00284B" stroke-width="16"/>
<circle cx="491.162" cy="513.159" r="41.9566" transform="rotate(-90 491.162 513.159)" fill="#19A582" stroke="#19A582" stroke-width="16"/>
<circle cx="678.836" cy="700.838" r="41.9566" transform="rotate(-90 678.836 700.838)" fill="#19A582" stroke="#19A582" stroke-width="16"/>
<rect x="585.674" y="420" width="186.325" height="186.325" fill="#19A582"/>
<rect x="398" y="607.674" width="186.325" height="186.325" fill="#19A582"/>
</svg>
