<?xml version="1.0" encoding="UTF-8" standalone="no"?>
<svg
   viewBox="0 0 147 60"
   version="1.1"
   id="svg936"
   sodipodi:docname="colonyStarter_color.svg"
   inkscape:version="1.1.2 (0a00cf5339, 2022-02-04, custom)"
   xmlns:inkscape="http://www.inkscape.org/namespaces/inkscape"
   xmlns:sodipodi="http://sodipodi.sourceforge.net/DTD/sodipodi-0.dtd"
   xmlns="http://www.w3.org/2000/svg"
   xmlns:svg="http://www.w3.org/2000/svg"
   xmlns:rdf="http://www.w3.org/1999/02/22-rdf-syntax-ns#"
   xmlns:cc="http://creativecommons.org/ns#"
   xmlns:dc="http://purl.org/dc/elements/1.1/">
  <defs
     id="defs940" />
  <sodipodi:namedview
     id="namedview938"
     pagecolor="#ffffff"
     bordercolor="#666666"
     borderopacity="1.0"
     inkscape:pageshadow="2"
     inkscape:pageopacity="0.0"
     inkscape:pagecheckerboard="0"
     showgrid="false"
     inkscape:zoom="7.5102041"
     inkscape:cx="73.5"
     inkscape:cy="29.559783"
     inkscape:window-width="1900"
     inkscape:window-height="1146"
     inkscape:window-x="0"
     inkscape:window-y="0"
     inkscape:window-maximized="1"
     inkscape:current-layer="svg936" />
  <title
     id="title899">1</title>
  <g
     id="logos">
    <rect
       x="20.24"
       y="33.57"
       width="10.74"
       height="10.74"
       transform="translate(-13.32 64.55) rotate(-90)"
       style="fill:#91d2fa"
       id="rect901" />
    <rect
       x="37.14"
       y="16.67"
       width="10.74"
       height="10.74"
       transform="translate(85.02 44.07) rotate(180)"
       style="fill:#91d2fa"
       id="rect903" />
    <rect
       x="37.14"
       y="33.49"
       width="10.74"
       height="10.74"
       transform="translate(85.02 77.71) rotate(180)"
       style="fill:#91d2fa"
       id="rect905" />
    <circle
       cx="25.61"
       cy="22.04"
       r="6.34"
       style="fill:#91d2fa"
       id="circle907" />
    <path
       d="M69.58,25a5.13,5.13,0,0,1-.66.56,4.5,4.5,0,0,1-.8.46,4.77,4.77,0,0,1-.92.32,4.93,4.93,0,0,1-1,.11,5,5,0,0,1-3.44-1.36,4.6,4.6,0,0,1-.76-.95,4.51,4.51,0,0,1-.5-1.12,4.64,4.64,0,0,1,0-2.49,4.51,4.51,0,0,1,.5-1.12,4.29,4.29,0,0,1,.76-.94,4.72,4.72,0,0,1,1-.73,4.89,4.89,0,0,1,2.46-.63,4.12,4.12,0,0,1,1,.11,5.37,5.37,0,0,1,.91.29,4.88,4.88,0,0,1,.8.46,5.64,5.64,0,0,1,.69.59l-1.26,1.35a2.56,2.56,0,0,0-.95-.75,2.76,2.76,0,0,0-1.2-.26,2.69,2.69,0,0,0-1.09.22,2.85,2.85,0,0,0-.89.6,2.94,2.94,0,0,0-.82,2.06,3.14,3.14,0,0,0,.22,1.15,3,3,0,0,0,.6.91,2.75,2.75,0,0,0,2,.83,3.08,3.08,0,0,0,.61-.07,2.84,2.84,0,0,0,.58-.2,2.9,2.9,0,0,0,1-.74Z"
       style="fill:#00284b"
       id="path909" />
    <path
       d="M72.07,21.8a4.34,4.34,0,0,1,.18-1.25,4.42,4.42,0,0,1,.49-1.11,4.35,4.35,0,0,1,.76-1,5.1,5.1,0,0,1,1-.73,5,5,0,0,1,1.17-.47,5.43,5.43,0,0,1,1.29-.16,5.58,5.58,0,0,1,1.3.16,5.13,5.13,0,0,1,1.16.47,4.88,4.88,0,0,1,1,.73,4.71,4.71,0,0,1,.77,1,4.81,4.81,0,0,1,.49,1.11,4.71,4.71,0,0,1,.17,1.25A4.58,4.58,0,0,1,81.65,23a4.56,4.56,0,0,1-1.26,2.07,4.53,4.53,0,0,1-1,.73,4.89,4.89,0,0,1-2.46.63,5,5,0,0,1-1.29-.16,5,5,0,0,1-1.17-.47,4.72,4.72,0,0,1-1-.73A4.66,4.66,0,0,1,72.25,23,4.23,4.23,0,0,1,72.07,21.8Zm2.07,0A3,3,0,0,0,74.36,23a2.88,2.88,0,0,0,.6.91,2.81,2.81,0,0,0,.9.61,2.64,2.64,0,0,0,1.08.22A2.79,2.79,0,0,0,79.53,23a3.09,3.09,0,0,0,0-2.29,2.75,2.75,0,0,0-2.59-1.74,2.64,2.64,0,0,0-1.08.22,2.81,2.81,0,0,0-.9.61,2.88,2.88,0,0,0-.6.91A3.06,3.06,0,0,0,74.14,21.81Z"
       style="fill:#00284b"
       id="path911" />
    <path
       d="M85,17.35H87.1v7.14h3.73v1.78H85Z"
       style="fill:#00284b"
       id="path913" />
    <path
       d="M93.11,21.8a4.34,4.34,0,0,1,.18-1.25,4.42,4.42,0,0,1,.49-1.11,4.35,4.35,0,0,1,.76-1,5.1,5.1,0,0,1,1-.73,5,5,0,0,1,1.17-.47,5.32,5.32,0,0,1,2.59,0,5.13,5.13,0,0,1,1.16.47,4.88,4.88,0,0,1,1,.73,4.39,4.39,0,0,1,.77,1,4.81,4.81,0,0,1,.49,1.11,4.34,4.34,0,0,1,.17,1.25,4.22,4.22,0,0,1-.17,1.24,4.7,4.7,0,0,1-.49,1.12,4.39,4.39,0,0,1-.77.95,4.53,4.53,0,0,1-1,.73,5.13,5.13,0,0,1-1.16.47,5.08,5.08,0,0,1-3.76-.47,4.72,4.72,0,0,1-1-.73A4.66,4.66,0,0,1,93.29,23,4.23,4.23,0,0,1,93.11,21.8Zm2.08,0A2.86,2.86,0,0,0,95.41,23a2.58,2.58,0,0,0,.6.91,2.77,2.77,0,0,0,.89.61,2.66,2.66,0,0,0,1.09.22,2.7,2.7,0,0,0,1.1-.22,2.88,2.88,0,0,0,.89-.61,2.7,2.7,0,0,0,.59-.91,3.09,3.09,0,0,0,0-2.29,2.7,2.7,0,0,0-.59-.91,2.88,2.88,0,0,0-.89-.61,2.7,2.7,0,0,0-1.1-.22,2.66,2.66,0,0,0-1.09.22,2.77,2.77,0,0,0-.89.61,2.58,2.58,0,0,0-.6.91A2.88,2.88,0,0,0,95.19,21.81Z"
       style="fill:#00284b"
       id="path915" />
    <path
       d="M114.16,26.27h-1.8l-4.26-5.34v5.34H106V17.35h1.81l4.24,5.33V17.35h2.08Z"
       style="fill:#00284b"
       id="path917" />
    <path
       d="M125.76,17.35l-3.44,5.54v3.38h-2.08V22.9l-3.43-5.55h2.42l2,3.66h0l2-3.66Z"
       style="fill:#00284b"
       id="path919" />
    <path
       d="M61.68,40.88c.18.09.4.18.65.28s.51.2.79.29.56.16.85.22a5,5,0,0,0,.84.08,3.22,3.22,0,0,0,.76-.07,1.45,1.45,0,0,0,.5-.21.91.91,0,0,0,.27-.32,1.16,1.16,0,0,0,.08-.42.69.69,0,0,0-.14-.43,1.27,1.27,0,0,0-.41-.32,4.55,4.55,0,0,0-.67-.25l-.91-.26-.57-.16-.64-.21a5.38,5.38,0,0,1-.64-.31,2.38,2.38,0,0,1-.56-.43,1.87,1.87,0,0,1-.39-.56,1.66,1.66,0,0,1-.15-.72,3,3,0,0,1,.22-1.2,2.21,2.21,0,0,1,.66-.91,3.05,3.05,0,0,1,1.14-.57A6.11,6.11,0,0,1,65,34.2a5.78,5.78,0,0,1,.94.07,7.88,7.88,0,0,1,.87.19,8.12,8.12,0,0,1,.79.27l.73.29-.56,1.72-.32-.13a3.33,3.33,0,0,0-.45-.16l-.53-.17-.57-.14a5.67,5.67,0,0,0-.57-.1,3.2,3.2,0,0,0-.52,0,2.66,2.66,0,0,0-.69.07,1.08,1.08,0,0,0-.43.2.59.59,0,0,0-.22.28.87.87,0,0,0-.06.32.6.6,0,0,0,.15.4,1.14,1.14,0,0,0,.4.28,2.8,2.8,0,0,0,.6.21c.23.06.48.11.76.16.46.11.89.24,1.28.37a3.78,3.78,0,0,1,1,.53,2.24,2.24,0,0,1,.66.8,2.61,2.61,0,0,1,.24,1.18A2.41,2.41,0,0,1,68.24,42a2.59,2.59,0,0,1-.81.87,4,4,0,0,1-1.22.53,6.7,6.7,0,0,1-1.53.17,7,7,0,0,1-1.15-.08,6.62,6.62,0,0,1-1-.21,6.7,6.7,0,0,1-.83-.28L61,42.68Z"
       style="fill:#00284b"
       id="path921" />
    <path
       d="M73.59,36.21H71.1V34.42h7.06v1.79h-2.5v7.13H73.59Z"
       style="fill:#00284b"
       id="path923" />
    <path
       d="M85.78,41.92H82l-.56,1.42h-2.2l3.65-8.92h2l3.65,8.92H86.35Zm-3-1.77h2.3L84,37.46l-.06-.29h0l-.06.29Z"
       style="fill:#00284b"
       id="path925" />
    <path
       d="M94.66,40.44H93.34v2.9H91.26V34.42h3.91a3.84,3.84,0,0,1,1.29.22,3.28,3.28,0,0,1,1,.62,2.82,2.82,0,0,1,.67,1,3.07,3.07,0,0,1,.24,1.23,3.24,3.24,0,0,1-.12.89,2.76,2.76,0,0,1-.34.76,3,3,0,0,1-.52.6,3.52,3.52,0,0,1-.69.44l1.88,3.21H96.22Zm.42-1.79a1.28,1.28,0,0,0,.48-.09,1.1,1.1,0,0,0,.65-.62,1.18,1.18,0,0,0,.1-.5,1.21,1.21,0,0,0-.1-.5,1.16,1.16,0,0,0-.26-.39,1.3,1.3,0,0,0-.39-.25,1.28,1.28,0,0,0-.48-.09H93.34v2.44Z"
       style="fill:#00284b"
       id="path927" />
    <path
       d="M103.37,36.21h-2.49V34.42h7.05v1.79h-2.49v7.13h-2.07Z"
       style="fill:#00284b"
       id="path929" />
    <path
       d="M110.71,34.42H117v1.79h-4.21V38h3.61v1.78h-3.61v1.74h4.26v1.78h-6.34Z"
       style="fill:#00284b"
       id="path931" />
    <path
       d="M123.79,40.44h-1.33v2.9h-2.08V34.42h3.91a3.79,3.79,0,0,1,1.29.22,3.06,3.06,0,0,1,1,.62,2.69,2.69,0,0,1,.67,1,3.07,3.07,0,0,1,.24,1.23,3.24,3.24,0,0,1-.12.89,3.07,3.07,0,0,1-.33.76,3,3,0,0,1-.53.6,3.17,3.17,0,0,1-.68.44l1.88,3.21h-2.39Zm.42-1.79a1.28,1.28,0,0,0,.48-.09,1.33,1.33,0,0,0,.39-.24,1.28,1.28,0,0,0,.26-.38,1.35,1.35,0,0,0,.09-.5,1.39,1.39,0,0,0-.09-.5,1.33,1.33,0,0,0-.26-.39,1.62,1.62,0,0,0-.39-.25,1.28,1.28,0,0,0-.48-.09h-1.75v2.44Z"
       style="fill:#00284b"
       id="path933" />
  </g>
  <metadata
     id="metadata1203">
    <rdf:RDF>
      <cc:Work
         rdf:about="">
        <dc:title>1</dc:title>
      </cc:Work>
    </rdf:RDF>
  </metadata>
  <path
     style="fill:#ff0000;stroke-width:0"
     id="path1166"
     d="m 58.101982,44.253467 c 0.142882,0.0049 0.285686,0.01571 0.428647,0.01461 0.602941,-0.0046 0.994334,-0.04767 1.62499,-0.124588 1.640716,-0.200098 3.256901,-0.529638 4.878332,-0.844891 4.911485,-0.982725 9.81225,-2.018267 14.723912,-2.999844 4.729229,-0.960773 9.548221,-1.27017 14.341679,-1.72702 0.919869,-0.08767 1.83857,-0.187184 2.757855,-0.280776 3.157093,-0.316298 6.299903,-0.756942 9.455273,-1.088219 1.8285,-0.191971 1.96136,-0.192873 3.73746,-0.337684 3.06776,-0.242908 6.14556,-0.265178 9.22075,-0.299487 1.95683,-0.01487 3.90904,-0.158567 5.83876,-0.48971 1.43107,-0.245575 1.93713,-0.389126 3.36191,-0.725943 0,0 1.30161,-0.992615 1.30161,-0.992615 v 0 c -1.40205,0.331069 -1.91695,0.476728 -3.32502,0.716079 -1.91567,0.325637 -3.85571,0.457843 -5.79705,0.486312 -3.09939,0.05634 -6.20387,0.06237 -9.29404,0.338417 -1.66775,0.153657 -2.09487,0.184528 -3.79953,0.378087 -3.1912,0.362351 -6.36939,0.831037 -9.563262,1.170869 -3.454693,0.358133 -2.087543,0.22565 -5.570123,0.549278 -3.857091,0.35843 -7.720917,0.698318 -11.528525,1.44118 -4.863314,0.961709 -9.715793,1.977333 -14.58716,2.898342 -1.562098,0.284524 -3.118801,0.579007 -4.700579,0.732741 -0.518919,0.05043 -0.998036,0.0839 -1.514002,0.07509 -0.12776,-0.0022 -0.255048,-0.01612 -0.382572,-0.02419 0,0 -1.609315,1.133958 -1.609315,1.133958 z" />
  <path
     style="fill:#ff0000;stroke-width:0"
     id="path1168"
     d="m 106.87282,45.171082 c -0.73685,0.02766 -1.47378,-0.0028 -2.21066,0.02021 -0.65749,0.0297 -1.31531,0.1056 -1.94388,0.305859 -0.80734,0.320181 -0.35215,0.129847 -2.00014,1.122223 -0.0833,0.05016 -0.18793,0.222232 -0.19673,0.319225 -0.005,0.05323 0.0105,0.106386 0.0158,0.159579 0.29269,0.604368 0.92936,1.027476 1.45464,1.420714 0.59152,0.436175 1.20097,0.848697 1.77699,1.305499 0.26947,0.241666 0.58396,0.469789 0.72724,0.812692 0.112,0.279681 0.0625,0.53652 -0.0435,0.806299 -0.15371,0.347999 -0.32375,0.68854 -0.52428,1.011906 -0.043,0.05475 -0.0833,0.111795 -0.1291,0.164264 -0.0804,0.0921 -0.20551,0.21253 -0.30338,0.286195 -0.0532,0.04007 -0.22516,0.142538 -0.16753,0.109088 1.64863,-0.956813 2.03725,-1.111667 1.31573,-0.805746 -0.53592,0.15083 -1.0996,0.167481 -1.65263,0.148184 -0.58217,-0.03123 -1.13837,-0.198958 -1.67334,-0.42066 -0.27925,-0.116336 -0.53641,-0.273384 -0.78492,-0.443987 0,0 -1.659794,1.059534 -1.659794,1.059534 v 0 c 0.259852,0.178496 0.527454,0.344274 0.817709,0.469984 0.549445,0.236107 1.122415,0.419118 1.721705,0.469882 0.56046,0.03722 1.12421,0.02501 1.6784,-0.07551 0.99647,-0.257792 2.04103,-0.885591 2.636,-1.759073 0.19496,-0.33982 0.37802,-0.689114 0.51897,-1.055101 0.0929,-0.316498 0.1029,-0.625177 -0.0229,-0.936978 -0.16847,-0.372451 -0.49783,-0.621504 -0.80361,-0.880999 -0.58812,-0.449326 -1.21036,-0.851553 -1.80601,-1.290791 -0.43183,-0.327305 -1.09599,-0.774538 -1.30307,-1.291418 0.0295,-0.101923 0.0742,-0.165569 0.15829,-0.233811 0.0299,-0.02426 0.12863,-0.08448 0.095,-0.06566 -1.85568,1.0395 -2.07624,1.147369 -1.39238,0.801924 0.61807,-0.247812 1.28047,-0.337047 1.94231,-0.379179 0.71607,-0.03349 1.43133,-0.0065 2.14746,0.01648 0,0 1.61151,-1.170829 1.61151,-1.170829 z" />
  <path
     style="fill:#ff0000;stroke-width:0"
     id="path1170"
     d="m 109.43029,45.978033 c -0.36784,0.803681 -0.6413,1.642419 -0.89599,2.48716 -0.25594,0.913264 -0.49804,1.830334 -0.79005,2.732947 -0.17116,0.524703 -0.39702,1.028498 -0.60229,1.540074 -0.0804,0.234377 -0.15303,0.47251 -0.21866,0.711632 -0.0273,0.130543 -0.0146,0.06705 -0.0383,0.190436 0,0 1.79442,-0.869627 1.79442,-0.869627 v 0 c 0.0244,-0.114134 0.0105,-0.05563 0.0421,-0.175389 0.0673,-0.229857 0.12618,-0.462565 0.21073,-0.686919 0.19237,-0.507771 0.39683,-1.011539 0.55347,-1.532023 0.27315,-0.902945 0.50523,-1.817214 0.76661,-2.723518 0.26281,-0.854565 0.55236,-1.70367 0.97935,-2.492721 0,0 -1.80148,0.817948 -1.80148,0.817948 z" />
  <path
     style="fill:#ff0000;stroke-width:0"
     id="path1176"
     d="m 108.68165,46.097605 c 0.64473,0.10188 1.19748,0.450393 1.72377,0.815088 0.69225,0.494731 1.27007,1.108302 1.70229,1.839256 0.31813,0.597308 0.38674,1.245756 0.2793,1.904871 -0.15959,0.617235 -0.55116,1.115857 -0.959,1.58953 -0.37309,0.43894 -0.79368,0.824433 -1.26386,1.155503 -0.0692,0.04359 -0.27819,0.171842 -0.2075,0.130765 2.74578,-1.595585 1.68328,-0.864912 1.02069,-0.703286 -0.17915,0.0437 -0.2887,0.05284 -0.47032,0.0763 -0.48595,0.02067 -0.9641,0.06324 -1.43629,0.183037 -0.422,0.122071 -0.81907,0.312553 -1.22947,0.466666 -0.33327,0.11475 -0.67997,0.181335 -1.01496,0.290238 0,0 -1.55703,1.220919 -1.55703,1.220919 v 0 c 0.32357,-0.144512 0.67449,-0.200647 1.01426,-0.29614 0.41959,-0.140725 0.81442,-0.343327 1.23323,-0.486471 0.46224,-0.142191 0.93145,-0.210911 1.416,-0.207637 1.24042,-0.116214 1.90099,-0.54164 3.05007,-1.395362 0.45781,-0.34922 0.86639,-0.75196 1.23532,-1.19456 0.41046,-0.503314 0.78852,-1.038969 0.91504,-1.68998 0.0757,-0.69971 -0.006,-1.389128 -0.35552,-2.01255 -0.45601,-0.745851 -1.04587,-1.381954 -1.75245,-1.900492 -0.52703,-0.39051 -1.07656,-0.744766 -1.7129,-0.929556 0,0 -1.63067,1.14386 -1.63067,1.143861 z" />
  <path
     style="fill:#ff0000;stroke-width:0"
     id="path1178"
     d="m 118.47742,46.483376 c -0.48266,0.677072 -0.91152,1.390427 -1.32627,2.110447 -0.46855,0.852817 -0.92936,1.709203 -1.42848,2.544719 -0.35722,0.593155 -0.7039,1.192329 -1.02978,1.803276 -0.1915,0.414281 -0.44014,0.794237 -0.68383,1.178199 -0.1507,0.232153 -0.26456,0.485242 -0.40988,0.720474 -0.11773,0.191002 -0.18023,0.408055 -0.25457,0.618167 -0.0104,0.03054 -0.0209,0.06109 -0.0313,0.09163 0,0 1.80435,-0.845219 1.80435,-0.845219 v 0 c 0.0102,-0.02949 0.0205,-0.05898 0.0307,-0.08846 0.0735,-0.201678 0.14669,-0.403252 0.26645,-0.583452 0.131,-0.237582 0.25359,-0.480072 0.40013,-0.708754 0.23985,-0.383075 0.46016,-0.776059 0.65848,-1.182517 0.32071,-0.601673 0.65372,-1.196645 1.00304,-1.78225 0.48713,-0.837286 0.93646,-1.695017 1.41249,-2.53854 0.42987,-0.726992 0.86216,-1.463137 1.41674,-2.103713 0,0 -1.82824,0.765994 -1.82824,0.765994 z" />
  <path
     style="fill:#ff0000;stroke-width:0"
     id="path1180"
     d="m 121.9534,47.702503 c -0.79993,0.554854 -1.64056,1.047859 -2.47108,1.554857 -0.63536,0.374483 -1.2657,0.757507 -1.90229,1.129915 -0.12365,0.07233 -0.49576,0.287323 -0.37183,0.215472 0.4392,-0.254642 0.87845,-0.50923 1.31767,-0.763845 -0.33473,0.178686 -0.65837,0.387849 -1.01843,0.51341 -0.1565,0.04098 -0.31066,0.04887 -0.46252,0.107583 -0.69802,0.279552 -0.271,0.104396 -1.84194,1.056102 -0.0534,0.03233 -0.0394,0.142395 -0.03,0.17999 0.0267,0.107206 0.0779,0.166221 0.13802,0.256114 0.31808,0.367649 0.69135,0.681145 1.07587,0.976318 0.36896,0.266583 0.73942,0.530284 1.09089,0.819807 0.24436,0.206397 0.47268,0.430642 0.69957,0.655798 0.18287,0.17019 0.33722,0.365547 0.48447,0.566315 0.0685,0.08295 0.11997,0.177403 0.17903,0.266687 0.0122,0.01836 0.022,0.0376 0.0335,0.05649 0,0 1.73496,-1.011597 1.73496,-1.011597 v 0 c -0.0147,-0.02107 -0.0243,-0.04496 -0.0406,-0.06506 -0.0685,-0.08486 -0.11989,-0.183559 -0.19489,-0.263724 -0.15935,-0.203581 -0.31687,-0.409641 -0.50867,-0.584587 -0.23205,-0.229255 -0.46482,-0.458477 -0.71554,-0.667555 -0.35591,-0.291103 -0.73618,-0.54865 -1.1098,-0.816108 -0.36641,-0.278104 -0.72439,-0.574096 -1.01369,-0.934493 -0.0228,-0.03723 -0.0766,-0.08412 -0.052,-0.120176 0.0186,-0.02728 0.11724,-0.06075 0.0886,-0.04428 -1.41214,0.812612 -2.21695,1.265347 -1.58329,0.908694 0.0691,-0.03102 0.14846,-0.09054 0.21922,-0.112373 0.0697,-0.0215 0.16174,0.0165 0.23045,-0.01802 0.39994,-0.08172 0.73965,-0.322031 1.09525,-0.510715 1.41164,-0.814081 2.82271,-1.628239 4.21484,-2.475396 0.85737,-0.521992 1.72174,-1.03409 2.55156,-1.599594 0,0 -1.83741,0.723975 -1.83741,0.723975 z" />
</svg>
