<svg width="1544" height="386" viewBox="0 0 1544 386" fill="none" xmlns="http://www.w3.org/2000/svg">
<path d="M630.28 113.36C624.64 119.84 617.68 125 609.4 128.84C601.12 132.56 591.58 134.42 580.78 134.42C570.94 134.42 561.82 132.8 553.42 129.56C545.14 126.32 537.94 121.76 531.82 115.88C525.7 109.88 520.9 102.74 517.42 94.46C513.94 86.18 512.2 77.06 512.2 67.1C512.2 56.9 513.94 47.66 517.42 39.38C521.02 31.1 525.94 24.08 532.18 18.32C538.42 12.44 545.74 7.94 554.14 4.81999C562.54 1.69999 571.6 0.13999 581.32 0.13999C590.32 0.13999 599.14 1.75999 607.78 4.99999C616.54 8.11999 623.62 12.74 629.02 18.86L608.14 39.74C605.26 35.78 601.48 32.84 596.8 30.92C592.12 29 587.32 28.04 582.4 28.04C577 28.04 572.02 29.06 567.46 31.1C563.02 33.02 559.18 35.72 555.94 39.2C552.7 42.68 550.18 46.82 548.38 51.62C546.58 56.3 545.68 61.46 545.68 67.1C545.68 72.86 546.58 78.14 548.38 82.94C550.18 87.74 552.64 91.88 555.76 95.36C559 98.72 562.84 101.36 567.28 103.28C571.72 105.2 576.58 106.16 581.86 106.16C587.98 106.16 593.32 104.96 597.88 102.56C602.44 100.16 606.1 97.04 608.86 93.2L630.28 113.36ZM823.703 66.74C823.703 76.82 821.963 86.06 818.483 94.46C815.003 102.74 810.143 109.88 803.903 115.88C797.783 121.76 790.463 126.32 781.943 129.56C773.423 132.8 764.183 134.42 754.223 134.42C744.263 134.42 735.023 132.8 726.503 129.56C718.103 126.32 710.783 121.76 704.543 115.88C698.423 109.88 693.623 102.74 690.143 94.46C686.663 86.06 684.923 76.82 684.923 66.74C684.923 56.54 686.663 47.36 690.143 39.2C693.623 30.92 698.423 23.9 704.543 18.14C710.783 12.38 718.103 7.94 726.503 4.81999C735.023 1.69999 744.263 0.13999 754.223 0.13999C764.183 0.13999 773.423 1.69999 781.943 4.81999C790.463 7.94 797.783 12.38 803.903 18.14C810.143 23.9 815.003 30.92 818.483 39.2C821.963 47.36 823.703 56.54 823.703 66.74ZM790.763 66.74C790.763 61.22 789.863 56.06 788.063 51.26C786.263 46.46 783.743 42.38 780.503 39.02C777.383 35.54 773.543 32.84 768.983 30.92C764.543 28.88 759.623 27.86 754.223 27.86C748.823 27.86 743.903 28.88 739.463 30.92C735.023 32.84 731.183 35.54 727.943 39.02C724.703 42.38 722.183 46.46 720.383 51.26C718.703 56.06 717.863 61.22 717.863 66.74C717.863 72.5 718.763 77.84 720.563 82.76C722.363 87.56 724.823 91.7 727.943 95.18C731.183 98.66 735.023 101.42 739.463 103.46C743.903 105.38 748.823 106.34 754.223 106.34C759.623 106.34 764.543 105.38 768.983 103.46C773.423 101.42 777.263 98.66 780.503 95.18C783.743 91.7 786.263 87.56 788.063 82.76C789.863 77.84 790.763 72.5 790.763 66.74ZM893.468 131V3.56H924.428V104.18H973.748V131H893.468ZM1165.11 66.74C1165.11 76.82 1163.37 86.06 1159.89 94.46C1156.41 102.74 1151.55 109.88 1145.31 115.88C1139.19 121.76 1131.87 126.32 1123.35 129.56C1114.83 132.8 1105.59 134.42 1095.63 134.42C1085.67 134.42 1076.43 132.8 1067.91 129.56C1059.51 126.32 1052.19 121.76 1045.95 115.88C1039.83 109.88 1035.03 102.74 1031.55 94.46C1028.07 86.06 1026.33 76.82 1026.33 66.74C1026.33 56.54 1028.07 47.36 1031.55 39.2C1035.03 30.92 1039.83 23.9 1045.95 18.14C1052.19 12.38 1059.51 7.94 1067.91 4.81999C1076.43 1.69999 1085.67 0.13999 1095.63 0.13999C1105.59 0.13999 1114.83 1.69999 1123.35 4.81999C1131.87 7.94 1139.19 12.38 1145.31 18.14C1151.55 23.9 1156.41 30.92 1159.89 39.2C1163.37 47.36 1165.11 56.54 1165.11 66.74ZM1132.17 66.74C1132.17 61.22 1131.27 56.06 1129.47 51.26C1127.67 46.46 1125.15 42.38 1121.91 39.02C1118.79 35.54 1114.95 32.84 1110.39 30.92C1105.95 28.88 1101.03 27.86 1095.63 27.86C1090.23 27.86 1085.31 28.88 1080.87 30.92C1076.43 32.84 1072.59 35.54 1069.35 39.02C1066.11 42.38 1063.59 46.46 1061.79 51.26C1060.11 56.06 1059.27 61.22 1059.27 66.74C1059.27 72.5 1060.17 77.84 1061.97 82.76C1063.77 87.56 1066.23 91.7 1069.35 95.18C1072.59 98.66 1076.43 101.42 1080.87 103.46C1085.31 105.38 1090.23 106.34 1095.63 106.34C1101.03 106.34 1105.95 105.38 1110.39 103.46C1114.83 101.42 1118.67 98.66 1121.91 95.18C1125.15 91.7 1127.67 87.56 1129.47 82.76C1131.27 77.84 1132.17 72.5 1132.17 66.74ZM1315.87 131L1264.57 47.66H1264.03L1264.75 131H1234.87V3.56H1269.97L1321.09 86.72H1321.63L1320.91 3.56H1350.79V131H1315.87ZM1488.5 77V131H1457.72V77L1409.84 3.56H1447.1L1474.28 50.72L1501.46 3.56H1537.46L1488.5 77ZM585.46 282.68C582.82 279.32 579.34 276.68 575.02 274.76C570.82 272.72 566.74 271.7 562.78 271.7C560.74 271.7 558.64 271.88 556.48 272.24C554.44 272.6 552.58 273.32 550.9 274.4C549.22 275.36 547.78 276.68 546.58 278.36C545.5 279.92 544.96 281.96 544.96 284.48C544.96 286.64 545.38 288.44 546.22 289.88C547.18 291.32 548.5 292.58 550.18 293.66C551.98 294.74 554.08 295.76 556.48 296.72C558.88 297.56 561.58 298.46 564.58 299.42C568.9 300.86 573.4 302.48 578.08 304.28C582.76 305.96 587.02 308.24 590.86 311.12C594.7 314 597.88 317.6 600.4 321.92C602.92 326.12 604.18 331.4 604.18 337.76C604.18 345.08 602.8 351.44 600.04 356.84C597.4 362.12 593.8 366.5 589.24 369.98C584.68 373.46 579.46 376.04 573.58 377.72C567.7 379.4 561.64 380.24 555.4 380.24C546.28 380.24 537.46 378.68 528.94 375.56C520.42 372.32 513.34 367.76 507.7 361.88L527.86 341.36C530.98 345.2 535.06 348.44 540.1 351.08C545.26 353.6 550.36 354.86 555.4 354.86C557.68 354.86 559.9 354.62 562.06 354.14C564.22 353.66 566.08 352.88 567.64 351.8C569.32 350.72 570.64 349.28 571.6 347.48C572.56 345.68 573.04 343.52 573.04 341C573.04 338.6 572.44 336.56 571.24 334.88C570.04 333.2 568.3 331.7 566.02 330.38C563.86 328.94 561.1 327.68 557.74 326.6C554.5 325.4 550.78 324.14 546.58 322.82C542.5 321.5 538.48 319.94 534.52 318.14C530.68 316.34 527.2 314.06 524.08 311.3C521.08 308.42 518.62 305 516.7 301.04C514.9 296.96 514 292.04 514 286.28C514 279.2 515.44 273.14 518.32 268.1C521.2 263.06 524.98 258.92 529.66 255.68C534.34 252.44 539.62 250.1 545.5 248.66C551.38 247.1 557.32 246.32 563.32 246.32C570.52 246.32 577.84 247.64 585.28 250.28C592.84 252.92 599.44 256.82 605.08 261.98L585.46 282.68ZM792.968 312.92C792.968 324.08 790.868 333.74 786.668 341.9C782.588 349.94 777.128 356.6 770.288 361.88C763.568 367.04 755.948 370.88 747.428 373.4C738.908 375.8 730.268 377 721.508 377H673.988V249.56H720.068C729.068 249.56 737.948 250.64 746.708 252.8C755.468 254.84 763.268 258.32 770.108 263.24C776.948 268.04 782.468 274.52 786.668 282.68C790.868 290.84 792.968 300.92 792.968 312.92ZM760.928 312.92C760.928 305.72 759.728 299.78 757.328 295.1C755.048 290.3 751.928 286.52 747.968 283.76C744.128 280.88 739.688 278.84 734.648 277.64C729.728 276.44 724.628 275.84 719.348 275.84H704.048V350.36H718.628C724.148 350.36 729.428 349.76 734.468 348.56C739.628 347.24 744.128 345.14 747.968 342.26C751.928 339.38 755.048 335.54 757.328 330.74C759.728 325.94 760.928 320 760.928 312.92ZM940.822 377L893.482 318.32H893.122V377H862.882V249.56H893.122V301.4H893.662L939.202 249.56H977.722L922.822 308.24L980.962 377H940.822Z" fill="#19A582"/>
<circle cx="93.1623" cy="96.1623" r="93.1623" fill="#19A582"/>
<rect x="322.795" y="54.207" width="83.9133" height="83.9133" transform="rotate(90 322.795 54.207)" fill="#19A582" stroke="#00284B" stroke-width="16"/>
<circle cx="280.836" cy="283.836" r="93.1623" fill="#19A582"/>
<rect x="135.12" y="241.883" width="83.9133" height="83.9133" transform="rotate(90 135.12 241.883)" fill="#19A582" stroke="#00284B" stroke-width="16"/>
<circle cx="93.1617" cy="96.1586" r="41.9566" transform="rotate(-90 93.1617 96.1586)" fill="#19A582" stroke="#19A582" stroke-width="16"/>
<circle cx="280.837" cy="283.838" r="41.9566" transform="rotate(-90 280.837 283.838)" fill="#19A582" stroke="#19A582" stroke-width="16"/>
<rect x="187.674" y="3" width="186.325" height="186.325" fill="#19A582"/>
<rect y="190.674" width="186.325" height="186.325" fill="#19A582"/>
</svg>
