<svg width="2340" height="1224" viewBox="0 0 2340 1224" fill="none" xmlns="http://www.w3.org/2000/svg">
<path d="M1028.28 530.36C1022.64 536.84 1015.68 542 1007.4 545.84C999.12 549.56 989.58 551.42 978.78 551.42C968.94 551.42 959.82 549.8 951.42 546.56C943.14 543.32 935.94 538.76 929.82 532.88C923.7 526.88 918.9 519.74 915.42 511.46C911.94 503.18 910.2 494.06 910.2 484.1C910.2 473.9 911.94 464.66 915.42 456.38C919.02 448.1 923.94 441.08 930.18 435.32C936.42 429.44 943.74 424.94 952.14 421.82C960.54 418.7 969.6 417.14 979.32 417.14C988.32 417.14 997.14 418.76 1005.78 422C1014.54 425.12 1021.62 429.74 1027.02 435.86L1006.14 456.74C1003.26 452.78 999.48 449.84 994.8 447.92C990.12 446 985.32 445.04 980.4 445.04C975 445.04 970.02 446.06 965.46 448.1C961.02 450.02 957.18 452.72 953.94 456.2C950.7 459.68 948.18 463.82 946.38 468.62C944.58 473.3 943.68 478.46 943.68 484.1C943.68 489.86 944.58 495.14 946.38 499.94C948.18 504.74 950.64 508.88 953.76 512.36C957 515.72 960.84 518.36 965.28 520.28C969.72 522.2 974.58 523.16 979.86 523.16C985.98 523.16 991.32 521.96 995.88 519.56C1000.44 517.16 1004.1 514.04 1006.86 510.2L1028.28 530.36ZM1221.7 483.74C1221.7 493.82 1219.96 503.06 1216.48 511.46C1213 519.74 1208.14 526.88 1201.9 532.88C1195.78 538.76 1188.46 543.32 1179.94 546.56C1171.42 549.8 1162.18 551.42 1152.22 551.42C1142.26 551.42 1133.02 549.8 1124.5 546.56C1116.1 543.32 1108.78 538.76 1102.54 532.88C1096.42 526.88 1091.62 519.74 1088.14 511.46C1084.66 503.06 1082.92 493.82 1082.92 483.74C1082.92 473.54 1084.66 464.36 1088.14 456.2C1091.62 447.92 1096.42 440.9 1102.54 435.14C1108.78 429.38 1116.1 424.94 1124.5 421.82C1133.02 418.7 1142.26 417.14 1152.22 417.14C1162.18 417.14 1171.42 418.7 1179.94 421.82C1188.46 424.94 1195.78 429.38 1201.9 435.14C1208.14 440.9 1213 447.92 1216.48 456.2C1219.96 464.36 1221.7 473.54 1221.7 483.74ZM1188.76 483.74C1188.76 478.22 1187.86 473.06 1186.06 468.26C1184.26 463.46 1181.74 459.38 1178.5 456.02C1175.38 452.54 1171.54 449.84 1166.98 447.92C1162.54 445.88 1157.62 444.86 1152.22 444.86C1146.82 444.86 1141.9 445.88 1137.46 447.92C1133.02 449.84 1129.18 452.54 1125.94 456.02C1122.7 459.38 1120.18 463.46 1118.38 468.26C1116.7 473.06 1115.86 478.22 1115.86 483.74C1115.86 489.5 1116.76 494.84 1118.56 499.76C1120.36 504.56 1122.82 508.7 1125.94 512.18C1129.18 515.66 1133.02 518.42 1137.46 520.46C1141.9 522.38 1146.82 523.34 1152.22 523.34C1157.62 523.34 1162.54 522.38 1166.98 520.46C1171.42 518.42 1175.26 515.66 1178.5 512.18C1181.74 508.7 1184.26 504.56 1186.06 499.76C1187.86 494.84 1188.76 489.5 1188.76 483.74ZM1291.47 548V420.56H1322.43V521.18H1371.75V548H1291.47ZM1563.11 483.74C1563.11 493.82 1561.37 503.06 1557.89 511.46C1554.41 519.74 1549.55 526.88 1543.31 532.88C1537.19 538.76 1529.87 543.32 1521.35 546.56C1512.83 549.8 1503.59 551.42 1493.63 551.42C1483.67 551.42 1474.43 549.8 1465.91 546.56C1457.51 543.32 1450.19 538.76 1443.95 532.88C1437.83 526.88 1433.03 519.74 1429.55 511.46C1426.07 503.06 1424.33 493.82 1424.33 483.74C1424.33 473.54 1426.07 464.36 1429.55 456.2C1433.03 447.92 1437.83 440.9 1443.95 435.14C1450.19 429.38 1457.51 424.94 1465.91 421.82C1474.43 418.7 1483.67 417.14 1493.63 417.14C1503.59 417.14 1512.83 418.7 1521.35 421.82C1529.87 424.94 1537.19 429.38 1543.31 435.14C1549.55 440.9 1554.41 447.92 1557.89 456.2C1561.37 464.36 1563.11 473.54 1563.11 483.74ZM1530.17 483.74C1530.17 478.22 1529.27 473.06 1527.47 468.26C1525.67 463.46 1523.15 459.38 1519.91 456.02C1516.79 452.54 1512.95 449.84 1508.39 447.92C1503.95 445.88 1499.03 444.86 1493.63 444.86C1488.23 444.86 1483.31 445.88 1478.87 447.92C1474.43 449.84 1470.59 452.54 1467.35 456.02C1464.11 459.38 1461.59 463.46 1459.79 468.26C1458.11 473.06 1457.27 478.22 1457.27 483.74C1457.27 489.5 1458.17 494.84 1459.97 499.76C1461.77 504.56 1464.23 508.7 1467.35 512.18C1470.59 515.66 1474.43 518.42 1478.87 520.46C1483.31 522.38 1488.23 523.34 1493.63 523.34C1499.03 523.34 1503.95 522.38 1508.39 520.46C1512.83 518.42 1516.67 515.66 1519.91 512.18C1523.15 508.7 1525.67 504.56 1527.47 499.76C1529.27 494.84 1530.17 489.5 1530.17 483.74ZM1713.87 548L1662.57 464.66H1662.03L1662.75 548H1632.87V420.56H1667.97L1719.09 503.72H1719.63L1718.91 420.56H1748.79V548H1713.87ZM1886.5 494V548H1855.72V494L1807.84 420.56H1845.1L1872.28 467.72L1899.46 420.56H1935.46L1886.5 494ZM985.8 750.44C985.8 755.48 985.2 760.76 984 766.28C982.92 771.8 980.82 776.9 977.7 781.58C974.7 786.14 970.44 789.92 964.92 792.92C959.52 795.92 952.5 797.42 943.86 797.42C933.06 797.42 924.06 794.66 916.86 789.14C909.66 783.5 904.86 776.3 902.46 767.54L929.64 758.36C930.48 761.72 931.98 764.42 934.14 766.46C936.42 768.5 939.18 769.52 942.42 769.52C947.46 769.52 950.76 767.78 952.32 764.3C954 760.82 954.84 756.26 954.84 750.62V666.56H985.8V750.44ZM1128.23 699.68C1125.59 696.32 1122.11 693.68 1117.79 691.76C1113.59 689.72 1109.51 688.7 1105.55 688.7C1103.51 688.7 1101.41 688.88 1099.25 689.24C1097.21 689.6 1095.35 690.32 1093.67 691.4C1091.99 692.36 1090.55 693.68 1089.35 695.36C1088.27 696.92 1087.73 698.96 1087.73 701.48C1087.73 703.64 1088.15 705.44 1088.99 706.88C1089.95 708.32 1091.27 709.58 1092.95 710.66C1094.75 711.74 1096.85 712.76 1099.25 713.72C1101.65 714.56 1104.35 715.46 1107.35 716.42C1111.67 717.86 1116.17 719.48 1120.85 721.28C1125.53 722.96 1129.79 725.24 1133.63 728.12C1137.47 731 1140.65 734.6 1143.17 738.92C1145.69 743.12 1146.95 748.4 1146.95 754.76C1146.95 762.08 1145.57 768.44 1142.81 773.84C1140.17 779.12 1136.57 783.5 1132.01 786.98C1127.45 790.46 1122.23 793.04 1116.35 794.72C1110.47 796.4 1104.41 797.24 1098.17 797.24C1089.05 797.24 1080.23 795.68 1071.71 792.56C1063.19 789.32 1056.11 784.76 1050.47 778.88L1070.63 758.36C1073.75 762.2 1077.83 765.44 1082.87 768.08C1088.03 770.6 1093.13 771.86 1098.17 771.86C1100.45 771.86 1102.67 771.62 1104.83 771.14C1106.99 770.66 1108.85 769.88 1110.41 768.8C1112.09 767.72 1113.41 766.28 1114.37 764.48C1115.33 762.68 1115.81 760.52 1115.81 758C1115.81 755.6 1115.21 753.56 1114.01 751.88C1112.81 750.2 1111.07 748.7 1108.79 747.38C1106.63 745.94 1103.87 744.68 1100.51 743.6C1097.27 742.4 1093.55 741.14 1089.35 739.82C1085.27 738.5 1081.25 736.94 1077.29 735.14C1073.45 733.34 1069.97 731.06 1066.85 728.3C1063.85 725.42 1061.39 722 1059.47 718.04C1057.67 713.96 1056.77 709.04 1056.77 703.28C1056.77 696.2 1058.21 690.14 1061.09 685.1C1063.97 680.06 1067.75 675.92 1072.43 672.68C1077.11 669.44 1082.39 667.1 1088.27 665.66C1094.15 664.1 1100.09 663.32 1106.09 663.32C1113.29 663.32 1120.61 664.64 1128.05 667.28C1135.61 669.92 1142.21 673.82 1147.85 678.98L1128.23 699.68Z" fill="#F5416E"/>
<rect x="304" y="490.35" width="155.937" height="155.937" transform="rotate(-45 304 490.35)" fill="#F5416E"/>
<rect x="549.17" y="734.082" width="155.937" height="155.937" transform="rotate(-45 549.17 734.082)" fill="#F5416E"/>
<rect x="336" y="657" width="158" height="157" fill="#F5416E"/>
<ellipse cx="661" cy="491.5" rx="95" ry="95.5" fill="#F5416E"/>
</svg>
