<svg xmlns="http://www.w3.org/2000/svg" viewBox="0 0 292.87 135.41"><title>colonyJS_combomark</title><g id="sketches"><path d="M92.21,66.9a5.54,5.54,0,1,0,5.57-5.51h0a5.55,5.55,0,0,0-5.57,5.51m15.27,0a9.71,9.71,0,1,1-9.71-9.74,9.7,9.7,0,0,1,9.71,9.74"/><path d="M148.25,66.9a5.54,5.54,0,1,0,5.57-5.51h0a5.53,5.53,0,0,0-5.56,5.51m15.27,0a9.71,9.71,0,1,1-9.71-9.74,9.72,9.72,0,0,1,9.71,9.74"/><polygon points="192.11 57.49 189.35 57.49 189.35 68.97 179.83 57.49 175.26 57.49 175.26 74.17 177.07 76.3 179.83 76.3 179.83 64.79 189.35 76.3 193.91 76.3 193.91 59.62 192.11 57.49"/><path d="M68.15,61.25a5.38,5.38,0,0,1,5,2.85H77V61.86a10,10,0,0,0-8.85-4.7c-5.9,0-10.18,4.37-10.18,9.6a9.79,9.79,0,0,0,10.18,9.87A10.18,10.18,0,0,0,77,71.74V69.53H73.1a5.47,5.47,0,0,1-4.95,2.85,5.55,5.55,0,0,1-5.59-5.61,5.39,5.39,0,0,1,5.59-5.51"/><polygon points="131.07 72.1 123.17 72.1 123.17 59.74 123.17 57.49 121.27 57.49 121.08 57.49 120.96 57.49 118.63 59.47 118.63 73.77 118.63 73.95 118.63 76.3 120.62 76.3 133.04 76.3 133.04 74.43 131.07 72.1"/><polygon points="212.2 74.21 214.02 76.35 216.79 76.35 216.79 76.35 216.79 69.21 222.7 60.65 222.7 60.65 224.91 57.44 219.6 57.44 216.36 62.39 214.53 65.17 214.28 64.79 209.39 57.44 204.13 57.44 206.34 60.67 206.34 60.67 212.2 69.21 212.2 74.21"/><path d="M241.36,57.05H239v12c0,.36,0,.74,0,1.15a4.26,4.26,0,0,1-.22,1.16,2.22,2.22,0,0,1-.58.88,1.62,1.62,0,0,1-1.12.36,1.82,1.82,0,0,1-1.23-.48,1.74,1.74,0,0,1-.62-1.16l-3.78.92a5,5,0,0,0,2,3.31,6.45,6.45,0,0,0,3.76,1.06,7.09,7.09,0,0,0,3.08-.57,4.39,4.39,0,0,0,1.81-1.51,5.47,5.47,0,0,0,.86-2.15,13.81,13.81,0,0,0,.23-2.52V59.18Z" style="fill:#797eff"/><path d="M267.19,67.48a4.86,4.86,0,0,0-1.6-1.56,8.56,8.56,0,0,0-2.08-.9c-.74-.21-1.43-.43-2.08-.64a6.11,6.11,0,0,1-1.6-.77,1.48,1.48,0,0,1-.63-1.29,1.56,1.56,0,0,1,.26-.9,2,2,0,0,1,.69-.6,3.46,3.46,0,0,1,.9-.33,4.33,4.33,0,0,1,.93-.1,4.9,4.9,0,0,1,1.62.3,3,3,0,0,1,1.37.94l2.83-3.09A7.09,7.09,0,0,0,265.12,57a10.44,10.44,0,0,0-3.06-.45,9.64,9.64,0,0,0-2.68.38,7,7,0,0,0-2.28,1.15A5.67,5.67,0,0,0,255.51,60a5.59,5.59,0,0,0-.6,2.64,4.44,4.44,0,0,0,.65,2.52,5.18,5.18,0,0,0,1.63,1.53,9.53,9.53,0,0,0,2.11.93c.76.23,1.47.45,2.12.68a5.92,5.92,0,0,1,1.63.84,1.58,1.58,0,0,1,.65,1.33,1.52,1.52,0,0,1-.26.88,1.83,1.83,0,0,1-.66.6,3.27,3.27,0,0,1-.92.36,4.52,4.52,0,0,1-3-.34,4.35,4.35,0,0,1-1.6-1.31l-2.93,3.23a8.47,8.47,0,0,0,2.9,1.79,10.55,10.55,0,0,0,6.16.19,6.79,6.79,0,0,0,2.3-1.14,5.5,5.5,0,0,0,1.57-1.93,6,6,0,0,0,.58-2.72A4.77,4.77,0,0,0,267.19,67.48Z" style="fill:#797eff"/><path d="M68.14,29.75A5.12,5.12,0,1,0,63,24.64h0a5.11,5.11,0,0,0,5.11,5.12h0Z" style="fill:#c2c5ff"/><path d="M68.14,105.18a5.12,5.12,0,1,0,5.12,5.11h0a5.12,5.12,0,0,0-5.1-5.13h0Z" style="fill:#c2c5ff"/><circle cx="49.27" cy="56.58" r="4.26" style="fill:#c2c5ff"/><path d="M49.27,37.79a2.36,2.36,0,1,0-2.35-2.35h0a2.35,2.35,0,0,0,2.35,2.35Z" style="fill:#c2c5ff"/><circle cx="31.05" cy="46.07" r="6.28" transform="translate(-23.48 35.45) rotate(-45)" style="fill:#c2c5ff"/><path d="M31.05,83.5a5.12,5.12,0,1,0,5.12,5.12,5.12,5.12,0,0,0-5.12-5.12Z" style="fill:#c2c5ff"/><path d="M33,67.46a2,2,0,1,0-2,2,2,2,0,0,0,2-2Z" style="fill:#c2c5ff"/><path d="M88.22,78.39a2,2,0,1,0-2,2,2,2,0,0,0,2-2Z" style="fill:#c2c5ff"/><path d="M88.22,55.35a2,2,0,1,0-2,2,2,2,0,0,0,2-2Z" style="fill:#c2c5ff"/><path d="M107,46.31a2,2,0,1,0-2,2,2,2,0,0,0,2-2Z" style="fill:#c2c5ff"/><path d="M109.28,88.62A4.27,4.27,0,1,1,105,84.36,4.26,4.26,0,0,1,109.28,88.62Z" style="fill:#c2c5ff"/><path d="M68.46,50.34a4.27,4.27,0,1,0-4.26-4.27,4.26,4.26,0,0,0,4.26,4.27Z" style="fill:#c2c5ff"/><circle cx="49.27" cy="56.58" r="4.26" style="fill:#c2c5ff"/><path d="M49.27,82.65A4.26,4.26,0,1,0,45,78.39a4.26,4.26,0,0,0,4.26,4.26Z" style="fill:#c2c5ff"/><path d="M86.23,39.37A4.26,4.26,0,1,0,82,35.11a4.27,4.27,0,0,0,4.26,4.26Z" style="fill:#c2c5ff"/><path d="M87,96.63a2.85,2.85,0,1,0,2.85,2.85h0A2.85,2.85,0,0,0,87,96.63Z" style="fill:#c2c5ff"/><path d="M49.27,96.63a2.85,2.85,0,1,0,2.85,2.85h0a2.85,2.85,0,0,0-2.85-2.85Z" style="fill:#c2c5ff"/><path d="M68.14,84.16a5.09,5.09,0,1,0,5.09,5.09h0a5.09,5.09,0,0,0-5.09-5.09Z" style="fill:#c2c5ff"/></g></svg>