<?xml version="1.0" encoding="utf-8"?>
<!-- Generator: Adobe Illustrator 22.1.0, SVG Export Plug-In . SVG Version: 6.00 Build 0)  -->
<svg version="1.1" xmlns="http://www.w3.org/2000/svg" xmlns:xlink="http://www.w3.org/1999/xlink" x="0px" y="0px"
	 viewBox="0 0 260.4 90.6" style="enable-background:new 0 0 260.4 90.6;" xml:space="preserve">
<style type="text/css">
	.st0{fill:#7CD6DF;}
	.st1{fill:#797EFF;}
	.st2{fill:#1E99EB;}
	.st3{fill:#46B77B;}
</style>
<g id="Layer_1">
</g>
<g id="sketches">
	<path d="M59.2,45.1c0,3.1,2.4,5.5,5.5,5.6c3.1,0,5.5-2.4,5.6-5.5c0-3.1-2.4-5.5-5.5-5.6l0,0C61.7,39.5,59.3,42,59.2,45.1
		 M74.5,45.1c0,5.4-4.4,9.7-9.7,9.7s-9.7-4.4-9.7-9.7c0-5.4,4.4-9.7,9.7-9.7C70.1,35.3,74.5,39.7,74.5,45.1"/>
	<path d="M115.3,45.1c0,3.1,2.4,5.5,5.5,5.6c3.1,0,5.5-2.4,5.6-5.5c0-3.1-2.4-5.5-5.5-5.6l0,0C117.8,39.5,115.3,42,115.3,45.1
		 M130.6,45.1c0,5.4-4.4,9.7-9.7,9.7c-5.4,0-9.7-4.4-9.7-9.7c0-5.4,4.4-9.7,9.7-9.7C126.2,35.3,130.6,39.7,130.6,45.1"/>
	<polygon points="159.1,35.7 156.4,35.7 156.4,47.1 146.9,35.7 142.3,35.7 142.3,52.3 144.1,54.5 146.9,54.5 146.9,43 156.4,54.5 
		160.9,54.5 160.9,37.8 	"/>
	<path d="M35.2,39.4c2.4,0,4.1,1.1,5,2.8H44V40c-1.7-2.8-4.8-4.7-8.9-4.7c-5.9,0-10.2,4.4-10.2,9.6c0,5.6,4.3,9.9,10.2,9.9
		c4,0,7.2-2.1,8.8-4.9v-2.2h-3.9l0,0c-0.9,1.7-2.6,2.8-5,2.8c-3.3,0-5.6-2.6-5.6-5.6C29.6,41.8,31.9,39.4,35.2,39.4"/>
	<polygon points="98.1,50.3 90.2,50.3 90.2,37.9 90.2,35.7 88.3,35.7 88.1,35.7 88,35.7 85.7,37.6 85.7,51.9 85.7,52.1 85.7,54.5 
		87.6,54.5 100.1,54.5 100.1,52.6 	"/>
	<polygon points="179.2,52.4 181,54.5 183.8,54.5 183.8,54.5 183.8,47.4 189.7,38.8 189.7,38.8 191.9,35.6 186.6,35.6 183.4,40.6 
		181.6,43.3 181.3,42.9 176.4,35.6 171.2,35.6 173.4,38.8 173.4,38.8 179.2,47.4 	"/>
	<g>
		<path class="st1" d="M208.4,35.2h-2.3v12c0,0.4,0,0.7,0,1.1c0,0.4-0.1,0.8-0.2,1.2c-0.1,0.3-0.3,0.6-0.6,0.9
			c-0.3,0.2-0.6,0.4-1.1,0.4c-0.5,0-0.9-0.2-1.2-0.5c-0.4-0.3-0.6-0.7-0.6-1.2l-3.8,0.9c0.3,1.5,1,2.6,2,3.3c1,0.7,2.3,1.1,3.8,1.1
			c1.3,0,2.3-0.2,3.1-0.6c0.8-0.4,1.4-0.9,1.8-1.5c0.4-0.6,0.7-1.3,0.9-2.2c0.1-0.8,0.2-1.6,0.2-2.5V37.3L208.4,35.2z"/>
		<path class="st1" d="M234.2,45.6c-0.4-0.7-1-1.2-1.6-1.6c-0.6-0.4-1.3-0.7-2.1-0.9c-0.7-0.2-1.4-0.4-2.1-0.6
			c-0.6-0.2-1.2-0.5-1.6-0.8c-0.4-0.3-0.6-0.7-0.6-1.3c0-0.4,0.1-0.7,0.3-0.9c0.2-0.2,0.4-0.5,0.7-0.6c0.3-0.2,0.6-0.3,0.9-0.3
			s0.6-0.1,0.9-0.1c0.5,0,1,0.1,1.6,0.3c0.6,0.2,1,0.5,1.4,0.9l2.8-3.1c-0.8-0.7-1.7-1.2-2.7-1.5c-1-0.3-2-0.5-3.1-0.5
			c-0.9,0-1.8,0.1-2.7,0.4c-0.9,0.3-1.6,0.6-2.3,1.2c-0.7,0.5-1.2,1.2-1.6,1.9c-0.4,0.8-0.6,1.6-0.6,2.6c0,1,0.2,1.9,0.7,2.5
			c0.4,0.6,1,1.1,1.6,1.5c0.6,0.4,1.4,0.7,2.1,0.9c0.8,0.2,1.5,0.5,2.1,0.7c0.6,0.2,1.2,0.5,1.6,0.8c0.4,0.3,0.6,0.8,0.6,1.3
			c0,0.3-0.1,0.6-0.3,0.9c-0.2,0.2-0.4,0.5-0.7,0.6c-0.3,0.2-0.6,0.3-0.9,0.4c-0.4,0.1-0.7,0.1-1,0.1c-0.7,0-1.3-0.1-2-0.5
			c-0.6-0.3-1.2-0.8-1.6-1.3l-2.9,3.2c0.9,0.8,1.9,1.4,2.9,1.8c1,0.4,2.2,0.6,3.4,0.6c1,0,1.9-0.1,2.8-0.4c0.9-0.2,1.6-0.6,2.3-1.1
			c0.7-0.5,1.2-1.2,1.6-1.9c0.4-0.8,0.6-1.7,0.6-2.7C234.9,47.2,234.6,46.3,234.2,45.6z"/>
	</g>
</g>
</svg>
