<svg xmlns="http://www.w3.org/2000/svg" viewBox="0 0 588.85 362.46"><title>diagram_2_r1</title><g id="Layer_1" data-name="Layer 1"><circle cx="66.7" cy="84.9" r="22.08" style="fill:#ffebf3"/><text transform="translate(45.52 166.22)" style="font-size:11px;fill:#3a3e43;font-family:Avenir-Medium, Avenir;letter-spacing:0.03995028409090909em">Contract Loaders</text><text transform="translate(238.93 54.06)" style="font-size:11px;fill:#3a3e43;font-family:Avenir-Medium, Avenir;letter-spacing:-0.007013494318181818em">W<tspan x="10.5" y="0" style="letter-spacing:0.03995028409090909em">eb3</tspan></text><text transform="translate(318.95 54.06)" style="font-size:11px;fill:#3a3e43;font-family:Avenir-Medium, Avenir;letter-spacing:0.0400390625em">Ethers</text><line x1="165.81" y1="162.34" x2="217.95" y2="162.34" style="fill:none;stroke:#797eff;stroke-linecap:round;stroke-linejoin:round;stroke-width:0.5px"/><polygon points="217.4 164.21 220.64 162.34 217.4 160.47 217.4 164.21" style="fill:#797eff"/><line x1="294.75" y1="84.99" x2="294.75" y2="138.85" style="fill:none;stroke:#797eff;stroke-linecap:round;stroke-linejoin:round;stroke-width:0.5px"/><polygon points="292.88 85.54 294.75 82.3 296.62 85.54 292.88 85.54" style="fill:#797eff"/><polygon points="292.88 138.3 294.75 141.54 296.62 138.3 292.88 138.3" style="fill:#797eff"/><line x1="294.75" y1="183.13" x2="294.75" y2="239.68" style="fill:none;stroke:#797eff;stroke-linecap:round;stroke-linejoin:round;stroke-width:0.5px"/><polygon points="292.88 239.13 294.75 242.37 296.62 239.13 292.88 239.13" style="fill:#797eff"/><line x1="423.85" y1="162.34" x2="371.71" y2="162.34" style="fill:none;stroke:#797eff;stroke-linecap:round;stroke-linejoin:round;stroke-width:0.5px"/><polygon points="372.25 160.47 369.02 162.34 372.25 164.21 372.25 160.47" style="fill:#797eff"/><line x1="92.62" y1="112.14" x2="92.62" y2="138.85" style="fill:none;stroke:#797eff;stroke-linecap:round;stroke-linejoin:round;stroke-width:0.5px"/><polygon points="90.75 138.3 92.62 141.54 94.49 138.3 90.75 138.3" style="fill:#797eff"/><line x1="497.41" y1="112.14" x2="497.41" y2="138.85" style="fill:none;stroke:#797eff;stroke-linecap:round;stroke-linejoin:round;stroke-width:0.5px"/><polygon points="495.54 138.3 497.41 141.54 499.28 138.3 495.54 138.3" style="fill:#797eff"/><polygon points="124.51 62.47 110.16 86.27 124.51 79.74 124.51 62.47" style="fill:#c5c5f5"/><polygon points="124.51 79.74 110.16 86.27 124.51 94.74 124.51 79.74" style="fill:#8585e3"/><polygon points="138.85 86.27 124.51 62.47 124.51 79.74 138.85 86.27" style="fill:#8d8dea"/><polygon points="124.51 94.74 138.85 86.27 124.51 79.74 124.51 94.74" style="fill:#6565de"/><polygon points="110.16 88.99 124.51 109.2 124.51 97.46 110.16 88.99" style="fill:#c5c5f5"/><polygon points="124.51 97.46 124.51 109.2 138.86 88.99 124.51 97.46" style="fill:#8d8dea"/><rect x="205.27" y="24.38" width="180.05" height="51.58" rx="5" ry="5" style="fill:none;stroke:#797eff;stroke-miterlimit:10;stroke-width:0.5px;stroke-dasharray:1.9982802867889404,2.9974205493927"/><rect x="143" y="247.39" width="304" height="91.38" rx="5" ry="5" style="fill:none;stroke:#797eff;stroke-miterlimit:10;stroke-width:0.5px;stroke-dasharray:2.005389928817749,3.008085012435913"/><path d="M76.67,80.71c1.93-.82,3.25-4.79,3.83-6.94a1.11,1.11,0,0,0-1.07-1.4h-3c-3.06,0-5,3.44-5,3.44" style="fill:#fff;stroke:#ffa7c1;stroke-miterlimit:10;stroke-width:0.5px"/><path d="M56.73,80.71c-1.94-.82-3.25-4.79-3.84-6.94A1.11,1.11,0,0,1,54,72.37h3c3.06,0,5,3.44,5,3.44" style="fill:#fff;stroke:#ffa7c1;stroke-miterlimit:10;stroke-width:0.5px"/><path d="M79.14,74.11s-2.49-.26-3.55,1.4S76.83,79,76.83,79s.72-.23.39-1.33A2.88,2.88,0,0,1,79.14,74.11Z" style="fill:#ffdfe8"/><path d="M54.26,74.11s2.49-.26,3.55,1.4S56.56,79,56.56,79s-.71-.23-.39-1.33A2.86,2.86,0,0,0,54.26,74.11Z" style="fill:#ffdfe8"/><path d="M67.5,99.1H65.89c-1.32,0-13.37-.65-11.41-11.58s7.91-12.4,11-12.4h2.45a9.45,9.45,0,0,1,3.55.69C74.35,77,77.58,80,78.92,87.52,80.88,98.45,68.84,99.1,67.5,99.1Z" style="fill:#fff"/><path d="M67.5,99.1H65.89c-1.32,0-13.37-.65-11.41-11.58s7.91-12.4,11-12.4h2.45a9.45,9.45,0,0,1,3.55.69C74.35,77,77.58,80,78.92,87.52,80.88,98.45,68.84,99.1,67.5,99.1Z" style="fill:none;stroke:#ffa7c1;stroke-miterlimit:10;stroke-width:0.5px"/><ellipse cx="73.43" cy="86.05" rx="1.52" ry="2.44" style="fill:#ffa7c1"/><ellipse cx="60.12" cy="86.05" rx="1.52" ry="2.44" style="fill:#ffa7c1"/><path d="M61.08,85.6c0,.77-.43-.25-1-.25s-1,1-1,.25.43-1.38,1-1.38S61.08,84.84,61.08,85.6Z" style="fill:#fff"/><path d="M71.44,91.87a3,3,0,0,1-2.82,3.3h-4a3.05,3.05,0,0,1-2.83-3.3,3.56,3.56,0,0,1,.13-.91,3,3,0,0,0,2.78,2.93h3.93a2.88,2.88,0,0,0,2.73-2.6A3.26,3.26,0,0,1,71.44,91.87Z" style="fill:#ffdfe8"/><path d="M64.76,91.53c0,.65-.38,1-.84,1s-.84-.4-.84-1,.38-1.29.84-1.29S64.76,90.89,64.76,91.53Z" style="fill:#ffa7c1"/><path d="M70.46,91.53c0,.65-.37,1-.83,1s-.84-.4-.84-1,.38-1.29.84-1.29S70.46,90.89,70.46,91.53Z" style="fill:#ffa7c1"/><path d="M67.07,95.17h1.54a3.05,3.05,0,0,0,2.83-3.3,4.33,4.33,0,0,0-4.58-4.11h-.47a4.33,4.33,0,0,0-4.58,4.11,3,3,0,0,0,2.82,3.3h2.44Z" style="fill:none;stroke:#ffa7c1;stroke-miterlimit:10;stroke-width:0.5px"/><path d="M482,76.91h27.11a2.17,2.17,0,0,1,2.17,2.17v1.34a0,0,0,0,1,0,0H482a1.76,1.76,0,0,1-1.76-1.76v0A1.76,1.76,0,0,1,482,76.91Z" style="fill:#f2f2ff;stroke:#5a5fe8;stroke-linecap:round;stroke-linejoin:round;stroke-width:0.5px"/><path d="M513.17,82.46v20.66a2,2,0,0,1-2,2H482.32a2,2,0,0,1-1.86-1.2l30.71-23.52A2,2,0,0,1,513.17,82.46Z" style="fill:#f2f2ff"/><path d="M513.17,90.53v12.59a2,2,0,0,1-2,2H494.09Z" style="fill:#b5b3ff"/><path d="M513.17,90.53v12.59a2,2,0,0,1-2,2H494.09Z" style="fill:#b5b3ff"/><path d="M513.17,97.13v6a2,2,0,0,1-2,2H482.32a2,2,0,0,1-2-2V78.53" style="fill:none;stroke:#5a5fe8;stroke-linecap:round;stroke-linejoin:round;stroke-width:0.5px"/><path d="M484.73,80.43h26.41a2,2,0,0,1,2,2v7.12" style="fill:none;stroke:#5a5fe8;stroke-linecap:round;stroke-linejoin:round;stroke-width:0.5px"/><path d="M510.31,54.28a9,9,0,0,1-9,8.88,9.19,9.19,0,0,1-2.19-.27Z" style="fill:#fbebbe"/><path d="M510.31,54.12a9,9,0,0,1-17,4.33l14.18-10.87A9,9,0,0,1,510.31,54.12Z" style="fill:#fef5de"/><path d="M510.31,54.28a9,9,0,0,1-9,8.88,9.19,9.19,0,0,1-2.19-.27Z" style="fill:#fbebbe"/><polygon points="502.26 51.64 502.26 52.73 504.57 52.73 504.57 54.01 502.26 54.01 502.26 59.58 500.52 59.58 500.52 54.01 498.21 54.01 498.21 52.73 500.52 52.73 500.52 51.64 497.54 51.64 497.54 50.02 505.24 50.02 505.24 51.64 502.26 51.64" style="fill:#ffc937"/><circle cx="501.27" cy="54.12" r="9.04" style="fill:none;stroke:#ffc937;stroke-linecap:round;stroke-linejoin:round;stroke-width:0.5px"/><circle cx="490.55" cy="66.92" r="5.02" style="fill:#fff"/><path d="M495.57,66.93a5,5,0,0,1-9.43,2.4l7.88-6A5,5,0,0,1,495.57,66.93Z" style="fill:#fef5de"/><path d="M495.57,67a5,5,0,0,1-5,4.93,4.83,4.83,0,0,1-1.21-.15Z" style="fill:#fbebbe"/><polygon points="491.1 65.55 491.1 66.15 492.39 66.15 492.39 66.87 491.1 66.87 491.1 69.96 490.14 69.96 490.14 66.87 488.85 66.87 488.85 66.15 490.14 66.15 490.14 65.55 488.48 65.55 488.48 64.65 492.76 64.65 492.76 65.55 491.1 65.55" style="fill:#ffc937"/><circle cx="490.55" cy="66.92" r="5.02" style="fill:none;stroke:#ffc937;stroke-linecap:round;stroke-linejoin:round;stroke-width:0.5px"/><path d="M74.4,85.6c0,.77-.43-.25-1-.25s-1,1-1,.25.44-1.38,1-1.38S74.4,84.84,74.4,85.6Z" style="fill:#fff"/><text transform="translate(480.2 166.22)" style="font-size:11px;fill:#3a3e43;font-family:Avenir-Medium, Avenir;letter-spacing:0.03995028409090909em">Signer</text><text transform="translate(269.97 166.22)" style="font-size:11px;fill:#3a3e43;font-family:Avenir-Medium, Avenir;letter-spacing:0.03995028409090909em">Adapters</text><text transform="translate(163.97 316.85)" style="font-size:11px;fill:#3a3e43;font-family:Avenir-Medium, Avenir;letter-spacing:0.03995028409090909em">ColonyNetworkClient</text><text transform="translate(333.6 316.85)" style="font-size:11px;fill:#3a3e43;font-family:Avenir-Medium, Avenir;letter-spacing:0.03995028409090909em">ColonyClient</text><path d="M67.49,98.9H65.9c-1.26,0-12.37-.6-11.41-10.33.8,7.6,10.26,8.1,11.41,8.1h1.59c1.17,0,10.62-.5,11.42-8.1C79.87,98.3,68.76,98.9,67.49,98.9Z" style="fill:#ffebf3"/><path d="M160.8,170.17v3a5,5,0,0,1-5,5H28.69a5,5,0,0,1-5-5v-3a5,5,0,0,0,5,5H155.8a5,5,0,0,0,5-5Z" style="fill:#f2f2ff"/><rect x="23.69" y="146.54" width="137.11" height="31.58" rx="5" ry="5" style="fill:none;stroke:#797eff;stroke-miterlimit:10;stroke-width:0.5px"/><path d="M291.28,58v3a5,5,0,0,1-5,5H222.36a5,5,0,0,1-5-5V58a5,5,0,0,0,5,5h63.92a5,5,0,0,0,5-5Z" style="fill:#f2f2ff"/><rect x="217.36" y="34.38" width="73.92" height="31.58" rx="5" ry="5" style="fill:none;stroke:#797eff;stroke-miterlimit:10;stroke-width:0.5px"/><path d="M290.94,322v3a5,5,0,0,1-5,5H158.36a5,5,0,0,1-5-5v-3a5,5,0,0,0,5,5H285.94a5,5,0,0,0,5-5Z" style="fill:#f2f2ff"/><rect x="153.36" y="298.37" width="137.58" height="31.58" rx="5" ry="5" style="fill:none;stroke:#797eff;stroke-miterlimit:10;stroke-width:0.5px"/><path d="M437.22,322v3a5,5,0,0,1-5,5H304.64a5,5,0,0,1-5-5v-3a5,5,0,0,0,5,5H432.22a5,5,0,0,0,5-5Z" style="fill:#f2f2ff"/><rect x="299.65" y="298.37" width="137.58" height="31.58" rx="5" ry="5" style="fill:none;stroke:#797eff;stroke-miterlimit:10;stroke-width:0.5px"/><path d="M373.23,58v3a5,5,0,0,1-5,5H304.3a5,5,0,0,1-5-5V58a5,5,0,0,0,5,5h63.93a5,5,0,0,0,5-5Z" style="fill:#f2f2ff"/><rect x="299.3" y="34.38" width="73.92" height="31.58" rx="5" ry="5" style="fill:none;stroke:#797eff;stroke-miterlimit:10;stroke-width:0.5px"/><path d="M363.62,170.17v3a5,5,0,0,1-5,5H231.51a5,5,0,0,1-5-5v-3a5,5,0,0,0,5,5H358.62a5,5,0,0,0,5-5Z" style="fill:#f2f2ff"/><rect x="226.51" y="146.54" width="137.11" height="31.58" rx="5" ry="5" style="fill:none;stroke:#797eff;stroke-miterlimit:10;stroke-width:0.5px"/><path d="M566.44,170.17v3a5,5,0,0,1-5,5H434.33a5,5,0,0,1-5-5v-3a5,5,0,0,0,5,5H561.44a5,5,0,0,0,5-5Z" style="fill:#f2f2ff"/><rect x="429.33" y="146.54" width="137.11" height="31.58" rx="5" ry="5" style="fill:none;stroke:#797eff;stroke-miterlimit:10;stroke-width:0.5px"/></g><g id="sketches"><path d="M258.7,272.05a2.82,2.82,0,1,0,2.84-2.8h0a2.82,2.82,0,0,0-2.84,2.8m7.79,0a5,5,0,1,1-4.95-5,5,5,0,0,1,4.95,5"/><path d="M287.28,272.05a2.82,2.82,0,1,0,2.84-2.8h0a2.82,2.82,0,0,0-2.84,2.8m7.79,0a5,5,0,1,1-4.95-5,5,5,0,0,1,4.95,5"/><polygon points="309.64 267.26 308.23 267.26 308.23 273.11 303.38 267.26 301.05 267.26 301.05 275.76 301.97 276.85 303.38 276.85 303.38 270.98 308.23 276.85 310.56 276.85 310.56 268.34 309.64 267.26"/><path d="M246.43,269.18a2.72,2.72,0,0,1,2.55,1.45h2v-1.14a5.1,5.1,0,0,0-4.51-2.4,5,5,0,1,0,0,9.93,5.19,5.19,0,0,0,4.51-2.5V273.4h-2a2.78,2.78,0,0,1-2.52,1.46,2.83,2.83,0,0,1-2.85-2.87,2.75,2.75,0,0,1,2.85-2.81"/><polygon points="278.51 274.7 274.48 274.7 274.48 268.4 274.48 267.26 273.51 267.26 273.42 267.26 273.36 267.26 272.17 268.26 272.17 275.56 272.17 275.65 272.17 276.85 273.18 276.85 279.52 276.85 279.52 275.89 278.51 274.7"/><polygon points="319.89 275.78 320.82 276.88 322.23 276.88 322.23 276.88 322.23 273.23 325.24 268.87 325.24 268.87 326.37 267.23 323.66 267.23 322.01 269.76 321.08 271.17 320.95 270.98 318.45 267.23 315.77 267.23 316.9 268.88 316.9 268.88 319.89 273.23 319.89 275.78"/><path d="M334.76,267h-1.18v6.13c0,.18,0,.38,0,.59a2.28,2.28,0,0,1-.11.59,1.27,1.27,0,0,1-.3.45.85.85,0,0,1-.57.18,1,1,0,0,1-.95-.84l-1.92.47a2.54,2.54,0,0,0,1,1.69,3.28,3.28,0,0,0,1.91.54,3.72,3.72,0,0,0,1.58-.29,2.27,2.27,0,0,0,.92-.77,2.83,2.83,0,0,0,.44-1.1,7.62,7.62,0,0,0,.11-1.28v-5.27Z" style="fill:#797eff"/><path d="M347.93,272.35a2.54,2.54,0,0,0-.81-.79,4.54,4.54,0,0,0-1.06-.46l-1.06-.33a3.3,3.3,0,0,1-.82-.39.76.76,0,0,1-.32-.66.78.78,0,0,1,.13-.46.92.92,0,0,1,.35-.3,1.6,1.6,0,0,1,.46-.17,2,2,0,0,1,.48-.05,2.5,2.5,0,0,1,.82.15,1.49,1.49,0,0,1,.7.48l1.44-1.58a3.69,3.69,0,0,0-1.36-.77,5.45,5.45,0,0,0-1.56-.23,4.83,4.83,0,0,0-1.37.2,3.42,3.42,0,0,0-1.16.58,2.86,2.86,0,0,0-.81,1,2.76,2.76,0,0,0-.31,1.34,2.26,2.26,0,0,0,.33,1.29,2.69,2.69,0,0,0,.83.78,4.71,4.71,0,0,0,1.08.47c.39.12.75.23,1.08.35a3.07,3.07,0,0,1,.83.43.8.8,0,0,1,.33.68.77.77,0,0,1-.13.45.83.83,0,0,1-.34.3,1.59,1.59,0,0,1-.46.19,2.44,2.44,0,0,1-.52.06,2.28,2.28,0,0,1-1-.24,2.15,2.15,0,0,1-.82-.67l-1.49,1.65a4.09,4.09,0,0,0,1.47.91,5.15,5.15,0,0,0,1.73.29,5.07,5.07,0,0,0,1.42-.19,3.56,3.56,0,0,0,1.17-.58,3,3,0,0,0,.8-1,3.06,3.06,0,0,0,.29-1.39A2.4,2.4,0,0,0,347.93,272.35Z" style="fill:#797eff"/><path d="M504.68,89.58h9.86a0,0,0,0,1,0,0v7.55a0,0,0,0,1,0,0h-9.86a3.06,3.06,0,0,1-3.06-3.06V92.64A3.06,3.06,0,0,1,504.68,89.58Z" style="fill:#f2f2ff;stroke:#5a5fe8;stroke-linecap:round;stroke-linejoin:round;stroke-width:0.5px"/><circle cx="505.43" cy="93.35" r="2.03" style="fill:#b5b3ff"/></g></svg>