<svg xmlns="http://www.w3.org/2000/svg" viewBox="0 0 147 60"><title>1</title><g id="logos"><path d="M71.76,24.7a6.08,6.08,0,0,1-.66.56,4.17,4.17,0,0,1-.8.46,5.12,5.12,0,0,1-.91.31,4.34,4.34,0,0,1-1,.12A5.07,5.07,0,0,1,67.07,26a5.13,5.13,0,0,1-1.16-.47,4.53,4.53,0,0,1-1.73-1.67,4.42,4.42,0,0,1-.49-3.59,4.42,4.42,0,0,1,.49-1.11,4.56,4.56,0,0,1,.75-.94,5.43,5.43,0,0,1,1-.73,5.18,5.18,0,0,1,2.45-.63,4.67,4.67,0,0,1,1,.11,4.32,4.32,0,0,1,.9.3,4.25,4.25,0,0,1,.8.46,5.43,5.43,0,0,1,.69.58L70.5,19.63a2.55,2.55,0,0,0-1-.74,2.69,2.69,0,0,0-1.19-.26,2.81,2.81,0,0,0-1.08.21,2.88,2.88,0,0,0-.89.61,2.8,2.8,0,0,0-.59.91,3.06,3.06,0,0,0,0,2.28,2.8,2.8,0,0,0,.59.91,2.85,2.85,0,0,0,.89.6,2.64,2.64,0,0,0,1.08.22,2.82,2.82,0,0,0,1.19-.27,2.75,2.75,0,0,0,.52-.31,3.57,3.57,0,0,0,.44-.43Z" style="fill:#00284b"/><path d="M74.28,21.49a4.28,4.28,0,0,1,.18-1.24A4.42,4.42,0,0,1,75,19.14a4.56,4.56,0,0,1,.75-.94,5.43,5.43,0,0,1,1-.73A5.1,5.1,0,0,1,77.84,17a5,5,0,0,1,1.29-.17,5,5,0,0,1,1.29.17,5.1,5.1,0,0,1,1.16.46,5.5,5.5,0,0,1,1,.73,4.61,4.61,0,0,1,.76.94,4.81,4.81,0,0,1,.49,1.11A4.64,4.64,0,0,1,84,21.49a4.42,4.42,0,0,1-.66,2.35,5,5,0,0,1-.76.95,5,5,0,0,1-1,.72,5.13,5.13,0,0,1-1.16.47,5,5,0,0,1-1.29.17A5,5,0,0,1,77.84,26a5.13,5.13,0,0,1-1.16-.47A4.53,4.53,0,0,1,75,23.84a4.56,4.56,0,0,1-.67-2.35Zm2.07,0a2.86,2.86,0,0,0,.22,1.14,2.8,2.8,0,0,0,.59.91,2.85,2.85,0,0,0,.89.6,2.64,2.64,0,0,0,1.08.22,2.67,2.67,0,0,0,1.1-.22,2.7,2.7,0,0,0,.88-.6,2.83,2.83,0,0,0,.6-.91,3.06,3.06,0,0,0,0-2.28,2.83,2.83,0,0,0-.6-.91,2.72,2.72,0,0,0-.88-.61,2.93,2.93,0,0,0-2.18,0,2.88,2.88,0,0,0-.89.61,2.8,2.8,0,0,0-.59.91A2.86,2.86,0,0,0,76.35,21.5Z" style="fill:#00284b"/><path d="M87.21,17.07h2.07v7.1H93v1.77H87.21Z" style="fill:#00284b"/><path d="M95.31,21.49a4.64,4.64,0,0,1,.17-1.24A4.81,4.81,0,0,1,96,19.14a5,5,0,0,1,.76-.94,5.43,5.43,0,0,1,1-.73A5.1,5.1,0,0,1,98.87,17a5,5,0,0,1,1.29-.17,5,5,0,0,1,1.29.17,4.71,4.71,0,0,1,2.14,1.19,4.29,4.29,0,0,1,.76.94,4.08,4.08,0,0,1,.49,1.11,4.28,4.28,0,0,1,.18,1.24,4.23,4.23,0,0,1-.18,1.24,4,4,0,0,1-.49,1.11,4.6,4.6,0,0,1-.76.95,4.67,4.67,0,0,1-1,.72,5.13,5.13,0,0,1-1.16.47,5,5,0,0,1-1.29.17A5,5,0,0,1,98.87,26a5.13,5.13,0,0,1-1.16-.47,5,5,0,0,1-1-.72,5.37,5.37,0,0,1-.76-.95,4.42,4.42,0,0,1-.66-2.35Zm2.06,0a3,3,0,0,0,.22,1.14,3,3,0,0,0,.6.91,2.74,2.74,0,0,0,.89.6,2.64,2.64,0,0,0,1.08.22,2.75,2.75,0,0,0,2-.82,3,3,0,0,0,.6-.91,3.2,3.2,0,0,0,0-2.28,3,3,0,0,0-.6-.91,2.72,2.72,0,0,0-.88-.61,2.87,2.87,0,0,0-1.1-.21,2.81,2.81,0,0,0-1.08.21,2.77,2.77,0,0,0-.89.61,3,3,0,0,0-.6.91A3,3,0,0,0,97.37,21.5Z" style="fill:#00284b"/><path d="M116.33,25.94h-1.79l-4.24-5.32v5.32h-2.07V17.07H110l4.23,5.3v-5.3h2.06Z" style="fill:#00284b"/><path d="M127.92,17.07l-3.43,5.51v3.36h-2.07V22.59L119,17.07h2.41l2,3.63h0l2-3.63Z" style="fill:#00284b"/><path d="M63.25,41.15h1.14a1.18,1.18,0,0,0,.89-.3,1.27,1.27,0,0,0,.29-.89v-5.9h2V40a3.4,3.4,0,0,1-.23,1.28,2.64,2.64,0,0,1-.67.93,3,3,0,0,1-1,.57,4.46,4.46,0,0,1-1.31.18H63.25Z" style="fill:#00284b"/><path d="M71.19,40.49l.64.28c.25.1.51.19.79.28a8.15,8.15,0,0,0,.85.22,4.14,4.14,0,0,0,.84.09,3.13,3.13,0,0,0,.75-.08,1.39,1.39,0,0,0,.49-.21.69.69,0,0,0,.27-.32.91.91,0,0,0,.09-.41.67.67,0,0,0-.14-.43,1.19,1.19,0,0,0-.42-.32,4.39,4.39,0,0,0-.66-.25l-.9-.26-.57-.16a6,6,0,0,1-.64-.21,5.38,5.38,0,0,1-.64-.31,2.58,2.58,0,0,1-.55-.42,1.85,1.85,0,0,1-.4-.56,1.81,1.81,0,0,1-.14-.72,3.29,3.29,0,0,1,.21-1.2,2.36,2.36,0,0,1,.67-.9A2.93,2.93,0,0,1,72.86,34a6.11,6.11,0,0,1,1.64-.19,5.78,5.78,0,0,1,.94.07,7.7,7.7,0,0,1,.86.19,8.13,8.13,0,0,1,.79.26l.73.29-.56,1.72-.32-.14-.45-.16L76,35.91l-.57-.15-.57-.1a4.92,4.92,0,0,0-.52,0,2.59,2.59,0,0,0-.68.08,1,1,0,0,0-.43.19.64.64,0,0,0-.22.28.91.91,0,0,0-.06.32.63.63,0,0,0,.14.4,1.29,1.29,0,0,0,.41.28,2.62,2.62,0,0,0,.6.21c.23.06.48.11.75.16a13,13,0,0,1,1.28.37,3.7,3.7,0,0,1,1,.52,2.24,2.24,0,0,1,.66.8A2.58,2.58,0,0,1,78,40.41a2.28,2.28,0,0,1-.3,1.18,2.52,2.52,0,0,1-.8.86,3.67,3.67,0,0,1-1.22.53,6,6,0,0,1-1.51.18A6.88,6.88,0,0,1,73,43.07a8.23,8.23,0,0,1-1-.2,7.28,7.28,0,0,1-.83-.29l-.66-.3Z" style="fill:#00284b"/><rect x="21.31" y="33.12" width="10.75" height="10.75" style="fill:#f5416e"/><rect x="21.31" y="16.2" width="10.75" height="10.75" transform="translate(-7.44 25.19) rotate(-45)" style="fill:#f5416e"/><rect x="38.23" y="33.04" width="10.75" height="10.75" transform="translate(-14.4 42.08) rotate(-45)" style="fill:#f5416e"/><circle cx="43.61" cy="21.6" r="6.41" style="fill:#f5416e"/></g></svg>