<svg xmlns="http://www.w3.org/2000/svg" viewBox="0 0 421.86 135.41"><title>colonyStarter_combomark</title><g id="sketches"><path d="M92.24,66.12a5.54,5.54,0,1,0,5.57-5.5h0a5.54,5.54,0,0,0-5.57,5.5m15.27,0a9.71,9.71,0,1,1-9.71-9.74,9.71,9.71,0,0,1,9.71,9.74"/><path d="M148.28,66.12a5.54,5.54,0,1,0,5.57-5.5h0a5.52,5.52,0,0,0-5.56,5.5m15.27,0a9.71,9.71,0,1,1-9.71-9.74,9.71,9.71,0,0,1,9.71,9.74"/><polygon points="192.13 56.72 189.38 56.72 189.38 68.2 179.86 56.72 175.29 56.72 175.29 73.4 177.1 75.53 179.86 75.53 179.86 64.02 189.38 75.53 193.94 75.53 193.94 58.85 192.13 56.72"/><path d="M68.18,60.48a5.37,5.37,0,0,1,5,2.85H77V61.09a10,10,0,0,0-8.85-4.71C62.28,56.38,58,60.75,58,66a9.8,9.8,0,0,0,10.18,9.88A10.19,10.19,0,0,0,77,71v-2.2h-3.9a5.47,5.47,0,0,1-4.95,2.85A5.55,5.55,0,0,1,62.59,66a5.39,5.39,0,0,1,5.59-5.5"/><polygon points="131.1 71.32 123.19 71.32 123.19 58.96 123.19 56.72 121.29 56.72 121.11 56.72 120.99 56.72 118.66 58.69 118.66 72.99 118.66 73.18 118.66 75.53 120.64 75.53 133.07 75.53 133.07 73.66 131.1 71.32"/><polygon points="212.23 73.43 214.05 75.58 216.82 75.58 216.82 75.58 216.82 68.43 222.72 59.87 222.72 59.87 224.94 56.66 219.63 56.66 216.38 61.62 214.56 64.4 214.31 64.01 209.42 56.66 204.16 56.66 206.37 59.89 206.37 59.89 212.23 68.43 212.23 73.43"/><path d="M68.15,29A5.12,5.12,0,1,0,63,23.92h0A5.11,5.11,0,0,0,68.14,29Z" style="fill:#8fe2c4"/><path d="M68.15,104.46a5.12,5.12,0,1,0,5.12,5.12h0a5.12,5.12,0,0,0-5.11-5.13h0Z" style="fill:#8fe2c4"/><circle cx="49.28" cy="55.87" r="4.26" style="fill:#8fe2c4"/><path d="M49.28,37.07a2.35,2.35,0,1,0-2.35-2.35h0a2.35,2.35,0,0,0,2.35,2.35Z" style="fill:#8fe2c4"/><circle cx="31.06" cy="45.36" r="6.28" transform="translate(-22.97 35.25) rotate(-45)" style="fill:#8fe2c4"/><path d="M31.06,82.79a5.12,5.12,0,1,0,5.11,5.11,5.11,5.11,0,0,0-5.11-5.11Z" style="fill:#8fe2c4"/><path d="M33,66.75a2,2,0,1,0-2,2,2,2,0,0,0,2-2Z" style="fill:#8fe2c4"/><path d="M88.23,77.67a2,2,0,1,0-2,2,2,2,0,0,0,2-2Z" style="fill:#8fe2c4"/><path d="M88.23,54.64a2,2,0,1,0-2,2,2,2,0,0,0,2-2Z" style="fill:#8fe2c4"/><path d="M107,45.6a2,2,0,1,0-2,2,2,2,0,0,0,2-2Z" style="fill:#8fe2c4"/><path d="M109.29,87.91A4.27,4.27,0,1,1,105,83.65,4.26,4.26,0,0,1,109.29,87.91Z" style="fill:#8fe2c4"/><path d="M68.47,49.62a4.26,4.26,0,1,0-4.26-4.26,4.26,4.26,0,0,0,4.26,4.26Z" style="fill:#8fe2c4"/><circle cx="49.28" cy="55.87" r="4.26" style="fill:#8fe2c4"/><path d="M49.28,81.94A4.27,4.27,0,1,0,45,77.67a4.27,4.27,0,0,0,4.26,4.27Z" style="fill:#8fe2c4"/><path d="M86.24,38.66A4.27,4.27,0,1,0,82,34.39a4.27,4.27,0,0,0,4.26,4.27Z" style="fill:#8fe2c4"/><path d="M87,95.92a2.85,2.85,0,1,0,2.85,2.85h0A2.85,2.85,0,0,0,87,95.92Z" style="fill:#8fe2c4"/><path d="M49.28,95.92a2.85,2.85,0,1,0,2.85,2.85h0a2.85,2.85,0,0,0-2.85-2.85Z" style="fill:#8fe2c4"/><path d="M68.15,83.45a5.09,5.09,0,1,0,5.09,5.09h0a5.09,5.09,0,0,0-5.09-5.09Z" style="fill:#8fe2c4"/><path d="M246.83,61.6a3,3,0,0,0-1.36-.94,5,5,0,0,0-1.63-.3,4.18,4.18,0,0,0-.92.1,3.46,3.46,0,0,0-.9.33,1.84,1.84,0,0,0-.69.6,1.63,1.63,0,0,0,.37,2.19,5.55,5.55,0,0,0,1.6.77c.64.21,1.34.43,2.08.64a8.32,8.32,0,0,1,2.07.9,4.47,4.47,0,0,1,2.24,4.18,6.09,6.09,0,0,1-.58,2.72,5.53,5.53,0,0,1-1.58,1.93,6.79,6.79,0,0,1-2.3,1.14,10.51,10.51,0,0,1-6.15-.19,8.45,8.45,0,0,1-2.91-1.79l2.94-3.23a4.27,4.27,0,0,0,1.6,1.31,4.53,4.53,0,0,0,2,.46,4.44,4.44,0,0,0,1-.12,3.34,3.34,0,0,0,.93-.36,2,2,0,0,0,.66-.6,1.52,1.52,0,0,0,.25-.88,1.58,1.58,0,0,0-.65-1.33,5.85,5.85,0,0,0-1.62-.84c-.66-.22-1.36-.45-2.12-.68a9.6,9.6,0,0,1-2.12-.93,5.15,5.15,0,0,1-1.62-1.53,4.36,4.36,0,0,1-.65-2.52,5.71,5.71,0,0,1,.59-2.64A5.79,5.79,0,0,1,239,58.08a7,7,0,0,1,2.29-1.15,9.52,9.52,0,0,1,2.67-.38A10.51,10.51,0,0,1,247,57a7,7,0,0,1,2.67,1.51Z" style="fill:#3dc198"/><path d="M258.43,56.8v3.65h5.34v13l1.73,2h2.4V60.45h5.34V56.8Z" style="fill:#3dc198"/><path d="M331.44,56.8v3.65h5.34v13l1.73,2h2.4V60.45h5.34V56.8Z" style="fill:#3dc198"/><path d="M318.58,67.62a4.66,4.66,0,0,0,3-1.76,5.49,5.49,0,0,0,1-3.37,6,6,0,0,0-.56-2.74A4.59,4.59,0,0,0,320.52,58a6.31,6.31,0,0,0-2.25-.92,12.45,12.45,0,0,0-2.71-.28h-7.25V73.93l1.36,1.6h2.77V68h2l3.91,7.49h4.95Zm-.57-4a2,2,0,0,1-.83.62,3.9,3.9,0,0,1-1.13.24c-.41,0-.81,0-1.18,0h-2.43V60.29h2.7a9,9,0,0,1,1.14.08,3.26,3.26,0,0,1,1,.3,1.83,1.83,0,0,1,1,1.79A1.89,1.89,0,0,1,318,63.65Z" style="fill:#3dc198"/><path d="M390.93,67.62a4.66,4.66,0,0,0,3-1.76,5.49,5.49,0,0,0,1-3.37,6,6,0,0,0-.56-2.74A4.59,4.59,0,0,0,392.87,58a6.31,6.31,0,0,0-2.25-.92,12.45,12.45,0,0,0-2.71-.28h-7.25V73.93l1.36,1.6h2.77V68h2l3.91,7.49h4.95Zm-.57-4a2,2,0,0,1-.83.62,3.9,3.9,0,0,1-1.13.24c-.41,0-.81,0-1.18,0h-2.43V60.29h2.7a9,9,0,0,1,1.14.08,3.26,3.26,0,0,1,1,.3,1.83,1.83,0,0,1,1,1.79A1.89,1.89,0,0,1,390.36,63.65Z" style="fill:#3dc198"/><path d="M290.78,57h-3.41l-8.1,18.73h4.55l1.57-4h7.27l1.61,4h4.66Zm-4.1,11.27L289,62.48l2.3,5.82Z" style="fill:#3dc198"/><path d="M360.78,72V68.14h8.12V64.33h-8.12V60.84h8.59V57H356.65V75.76h13.2V72Z" style="fill:#3dc198"/></g></svg>