<svg xmlns="http://www.w3.org/2000/svg" viewBox="0 0 147 60"><title>1</title><g id="logos"><rect x="20.24" y="33.57" width="10.74" height="10.74" transform="translate(-13.32 64.55) rotate(-90)" style="fill:#91d2fa"/><rect x="37.14" y="16.67" width="10.74" height="10.74" transform="translate(85.02 44.07) rotate(180)" style="fill:#91d2fa"/><rect x="37.14" y="33.49" width="10.74" height="10.74" transform="translate(85.02 77.71) rotate(180)" style="fill:#91d2fa"/><circle cx="25.61" cy="22.04" r="6.34" style="fill:#91d2fa"/><path d="M69.58,25a5.13,5.13,0,0,1-.66.56,4.5,4.5,0,0,1-.8.46,4.77,4.77,0,0,1-.92.32,4.93,4.93,0,0,1-1,.11,5,5,0,0,1-3.44-1.36,4.6,4.6,0,0,1-.76-.95,4.51,4.51,0,0,1-.5-1.12,4.64,4.64,0,0,1,0-2.49,4.51,4.51,0,0,1,.5-1.12,4.29,4.29,0,0,1,.76-.94,4.72,4.72,0,0,1,1-.73,4.89,4.89,0,0,1,2.46-.63,4.12,4.12,0,0,1,1,.11,5.37,5.37,0,0,1,.91.29,4.88,4.88,0,0,1,.8.46,5.64,5.64,0,0,1,.69.59l-1.26,1.35a2.56,2.56,0,0,0-.95-.75,2.76,2.76,0,0,0-1.2-.26,2.69,2.69,0,0,0-1.09.22,2.85,2.85,0,0,0-.89.6,2.94,2.94,0,0,0-.82,2.06,3.14,3.14,0,0,0,.22,1.15,3,3,0,0,0,.6.91,2.75,2.75,0,0,0,2,.83,3.08,3.08,0,0,0,.61-.07,2.84,2.84,0,0,0,.58-.2,2.9,2.9,0,0,0,1-.74Z" style="fill:#00284b"/><path d="M72.07,21.8a4.34,4.34,0,0,1,.18-1.25,4.42,4.42,0,0,1,.49-1.11,4.35,4.35,0,0,1,.76-1,5.1,5.1,0,0,1,1-.73,5,5,0,0,1,1.17-.47,5.43,5.43,0,0,1,1.29-.16,5.58,5.58,0,0,1,1.3.16,5.13,5.13,0,0,1,1.16.47,4.88,4.88,0,0,1,1,.73,4.71,4.71,0,0,1,.77,1,4.81,4.81,0,0,1,.49,1.11,4.71,4.71,0,0,1,.17,1.25A4.58,4.58,0,0,1,81.65,23a4.56,4.56,0,0,1-1.26,2.07,4.53,4.53,0,0,1-1,.73,4.89,4.89,0,0,1-2.46.63,5,5,0,0,1-1.29-.16,5,5,0,0,1-1.17-.47,4.72,4.72,0,0,1-1-.73A4.66,4.66,0,0,1,72.25,23,4.23,4.23,0,0,1,72.07,21.8Zm2.07,0A3,3,0,0,0,74.36,23a2.88,2.88,0,0,0,.6.91,2.81,2.81,0,0,0,.9.61,2.64,2.64,0,0,0,1.08.22A2.79,2.79,0,0,0,79.53,23a3.09,3.09,0,0,0,0-2.29,2.75,2.75,0,0,0-2.59-1.74,2.64,2.64,0,0,0-1.08.22,2.81,2.81,0,0,0-.9.61,2.88,2.88,0,0,0-.6.91A3.06,3.06,0,0,0,74.14,21.81Z" style="fill:#00284b"/><path d="M85,17.35H87.1v7.14h3.73v1.78H85Z" style="fill:#00284b"/><path d="M93.11,21.8a4.34,4.34,0,0,1,.18-1.25,4.42,4.42,0,0,1,.49-1.11,4.35,4.35,0,0,1,.76-1,5.1,5.1,0,0,1,1-.73,5,5,0,0,1,1.17-.47,5.32,5.32,0,0,1,2.59,0,5.13,5.13,0,0,1,1.16.47,4.88,4.88,0,0,1,1,.73,4.39,4.39,0,0,1,.77,1,4.81,4.81,0,0,1,.49,1.11,4.34,4.34,0,0,1,.17,1.25,4.22,4.22,0,0,1-.17,1.24,4.7,4.7,0,0,1-.49,1.12,4.39,4.39,0,0,1-.77.95,4.53,4.53,0,0,1-1,.73,5.13,5.13,0,0,1-1.16.47,5.08,5.08,0,0,1-3.76-.47,4.72,4.72,0,0,1-1-.73A4.66,4.66,0,0,1,93.29,23,4.23,4.23,0,0,1,93.11,21.8Zm2.08,0A2.86,2.86,0,0,0,95.41,23a2.58,2.58,0,0,0,.6.91,2.77,2.77,0,0,0,.89.61,2.66,2.66,0,0,0,1.09.22,2.7,2.7,0,0,0,1.1-.22,2.88,2.88,0,0,0,.89-.61,2.7,2.7,0,0,0,.59-.91,3.09,3.09,0,0,0,0-2.29,2.7,2.7,0,0,0-.59-.91,2.88,2.88,0,0,0-.89-.61,2.7,2.7,0,0,0-1.1-.22,2.66,2.66,0,0,0-1.09.22,2.77,2.77,0,0,0-.89.61,2.58,2.58,0,0,0-.6.91A2.88,2.88,0,0,0,95.19,21.81Z" style="fill:#00284b"/><path d="M114.16,26.27h-1.8l-4.26-5.34v5.34H106V17.35h1.81l4.24,5.33V17.35h2.08Z" style="fill:#00284b"/><path d="M125.76,17.35l-3.44,5.54v3.38h-2.08V22.9l-3.43-5.55h2.42l2,3.66h0l2-3.66Z" style="fill:#00284b"/><path d="M61.68,40.88c.18.09.4.18.65.28s.51.2.79.29.56.16.85.22a5,5,0,0,0,.84.08,3.22,3.22,0,0,0,.76-.07,1.45,1.45,0,0,0,.5-.21.91.91,0,0,0,.27-.32,1.16,1.16,0,0,0,.08-.42.69.69,0,0,0-.14-.43,1.27,1.27,0,0,0-.41-.32,4.55,4.55,0,0,0-.67-.25l-.91-.26-.57-.16-.64-.21a5.38,5.38,0,0,1-.64-.31,2.38,2.38,0,0,1-.56-.43,1.87,1.87,0,0,1-.39-.56,1.66,1.66,0,0,1-.15-.72,3,3,0,0,1,.22-1.2,2.21,2.21,0,0,1,.66-.91,3.05,3.05,0,0,1,1.14-.57A6.11,6.11,0,0,1,65,34.2a5.78,5.78,0,0,1,.94.07,7.88,7.88,0,0,1,.87.19,8.12,8.12,0,0,1,.79.27l.73.29-.56,1.72-.32-.13a3.33,3.33,0,0,0-.45-.16l-.53-.17-.57-.14a5.67,5.67,0,0,0-.57-.1,3.2,3.2,0,0,0-.52,0,2.66,2.66,0,0,0-.69.07,1.08,1.08,0,0,0-.43.2.59.59,0,0,0-.22.28.87.87,0,0,0-.06.32.6.6,0,0,0,.15.4,1.14,1.14,0,0,0,.4.28,2.8,2.8,0,0,0,.6.21c.23.06.48.11.76.16.46.11.89.24,1.28.37a3.78,3.78,0,0,1,1,.53,2.24,2.24,0,0,1,.66.8,2.61,2.61,0,0,1,.24,1.18A2.41,2.41,0,0,1,68.24,42a2.59,2.59,0,0,1-.81.87,4,4,0,0,1-1.22.53,6.7,6.7,0,0,1-1.53.17,7,7,0,0,1-1.15-.08,6.62,6.62,0,0,1-1-.21,6.7,6.7,0,0,1-.83-.28L61,42.68Z" style="fill:#00284b"/><path d="M73.59,36.21H71.1V34.42h7.06v1.79h-2.5v7.13H73.59Z" style="fill:#00284b"/><path d="M85.78,41.92H82l-.56,1.42h-2.2l3.65-8.92h2l3.65,8.92H86.35Zm-3-1.77h2.3L84,37.46l-.06-.29h0l-.06.29Z" style="fill:#00284b"/><path d="M94.66,40.44H93.34v2.9H91.26V34.42h3.91a3.84,3.84,0,0,1,1.29.22,3.28,3.28,0,0,1,1,.62,2.82,2.82,0,0,1,.67,1,3.07,3.07,0,0,1,.24,1.23,3.24,3.24,0,0,1-.12.89,2.76,2.76,0,0,1-.34.76,3,3,0,0,1-.52.6,3.52,3.52,0,0,1-.69.44l1.88,3.21H96.22Zm.42-1.79a1.28,1.28,0,0,0,.48-.09,1.1,1.1,0,0,0,.65-.62,1.18,1.18,0,0,0,.1-.5,1.21,1.21,0,0,0-.1-.5,1.16,1.16,0,0,0-.26-.39,1.3,1.3,0,0,0-.39-.25,1.28,1.28,0,0,0-.48-.09H93.34v2.44Z" style="fill:#00284b"/><path d="M103.37,36.21h-2.49V34.42h7.05v1.79h-2.49v7.13h-2.07Z" style="fill:#00284b"/><path d="M110.71,34.42H117v1.79h-4.21V38h3.61v1.78h-3.61v1.74h4.26v1.78h-6.34Z" style="fill:#00284b"/><path d="M123.79,40.44h-1.33v2.9h-2.08V34.42h3.91a3.79,3.79,0,0,1,1.29.22,3.06,3.06,0,0,1,1,.62,2.69,2.69,0,0,1,.67,1,3.07,3.07,0,0,1,.24,1.23,3.24,3.24,0,0,1-.12.89,3.07,3.07,0,0,1-.33.76,3,3,0,0,1-.53.6,3.17,3.17,0,0,1-.68.44l1.88,3.21h-2.39Zm.42-1.79a1.28,1.28,0,0,0,.48-.09,1.33,1.33,0,0,0,.39-.24,1.28,1.28,0,0,0,.26-.38,1.35,1.35,0,0,0,.09-.5,1.39,1.39,0,0,0-.09-.5,1.33,1.33,0,0,0-.26-.39,1.62,1.62,0,0,0-.39-.25,1.28,1.28,0,0,0-.48-.09h-1.75v2.44Z" style="fill:#00284b"/></g></svg>