<svg id="Layer_1" data-name="Layer 1" xmlns="http://www.w3.org/2000/svg" viewBox="0 0 387.18 90.64"><title>colonyStarter_wordmark</title><g id="sketches"><path d="M59.26,45.06a5.54,5.54,0,1,0,5.58-5.5h0a5.53,5.53,0,0,0-5.57,5.5m15.27,0a9.71,9.71,0,1,1-9.71-9.74,9.71,9.71,0,0,1,9.71,9.74v0"/><path d="M115.3,45.06a5.54,5.54,0,1,0,5.58-5.5h0A5.52,5.52,0,0,0,115.31,45v0m15.27,0a9.71,9.71,0,1,1-9.71-9.74,9.71,9.71,0,0,1,9.71,9.74v0"/><polygon points="159.15 35.66 156.4 35.66 156.4 47.14 146.88 35.66 142.31 35.66 142.31 52.34 144.12 54.47 146.88 54.47 146.88 42.96 156.4 54.47 160.96 54.47 160.96 37.79 159.15 35.66"/><path d="M35.2,39.42a5.37,5.37,0,0,1,5,2.85H44V40a10,10,0,0,0-8.85-4.71C29.3,35.32,25,39.69,25,44.94a9.8,9.8,0,0,0,9.71,9.89h.47A10.2,10.2,0,0,0,44,49.94v-2.2h-3.9a5.62,5.62,0,0,1-10.51-2.69v-.11a5.39,5.39,0,0,1,5.27-5.5h.32"/><polygon points="98.12 50.26 90.21 50.26 90.21 37.9 90.21 35.66 88.31 35.66 88.13 35.66 88.01 35.66 85.68 37.63 85.68 51.93 85.68 52.12 85.68 54.47 87.66 54.47 100.09 54.47 100.09 52.6 98.12 50.26"/><polygon points="179.25 52.37 181.07 54.52 183.84 54.52 183.84 54.52 183.84 47.37 189.74 38.81 189.74 38.81 191.96 35.6 186.65 35.6 183.4 40.56 181.58 43.34 181.33 42.95 176.44 35.6 171.18 35.6 173.39 38.83 173.39 38.83 179.25 47.37 179.25 52.37"/><path d="M213.85,40.54a3.07,3.07,0,0,0-1.36-.94,5.05,5.05,0,0,0-1.63-.3,4.05,4.05,0,0,0-.92.1,3.46,3.46,0,0,0-.9.33,1.74,1.74,0,0,0-.69.6,1.63,1.63,0,0,0,.37,2.19,5.63,5.63,0,0,0,1.6.77c.64.21,1.34.43,2.08.64a8.28,8.28,0,0,1,2.07.9A4.49,4.49,0,0,1,216.71,49a6.08,6.08,0,0,1-.58,2.72,5.47,5.47,0,0,1-1.58,1.93,6.88,6.88,0,0,1-2.3,1.14,10.49,10.49,0,0,1-6.15-.19,8.43,8.43,0,0,1-2.91-1.79l2.94-3.23a4.33,4.33,0,0,0,1.6,1.31,4.61,4.61,0,0,0,2,.46,4.21,4.21,0,0,0,1-.12,3.2,3.2,0,0,0,.93-.36,2,2,0,0,0,.66-.6,1.53,1.53,0,0,0,.25-.88,1.59,1.59,0,0,0-.65-1.33,5.81,5.81,0,0,0-1.62-.84c-.66-.22-1.36-.45-2.12-.68a9.75,9.75,0,0,1-2.12-.93,5.15,5.15,0,0,1-1.62-1.53,4.29,4.29,0,0,1-.65-2.52,5.64,5.64,0,0,1,.59-2.64A5.8,5.8,0,0,1,206,37a7,7,0,0,1,2.29-1.15,9.68,9.68,0,0,1,2.67-.38,10.46,10.46,0,0,1,3,.45,7.09,7.09,0,0,1,2.67,1.51Z" style="fill:#44bf98"/><path d="M225.45,35.74v3.65h5.34v13l1.73,2h2.4v-15h5.34V35.74Z" style="fill:#44bf98"/><path d="M298.46,35.74v3.65h5.34v13l1.73,2h2.4v-15h5.34V35.74Z" style="fill:#44bf98"/><path d="M285.6,46.56a4.69,4.69,0,0,0,3-1.76,5.55,5.55,0,0,0,1-3.37,6,6,0,0,0-.56-2.74,4.61,4.61,0,0,0-1.5-1.75,6.33,6.33,0,0,0-2.25-.92,12.35,12.35,0,0,0-2.71-.28h-7.25V52.87l1.36,1.6h2.77V46.94h2l3.91,7.49h4.95Zm-.57-4a2,2,0,0,1-.83.62,3.62,3.62,0,0,1-1.13.24h-3.61V39.23h2.7a8.74,8.74,0,0,1,1.14.08,3.5,3.5,0,0,1,1,.3,1.83,1.83,0,0,1,1,1.79,1.92,1.92,0,0,1-.28,1.19Z" style="fill:#44bf98"/><path d="M358,46.56a4.69,4.69,0,0,0,3-1.76,5.55,5.55,0,0,0,1-3.37,6,6,0,0,0-.56-2.74,4.61,4.61,0,0,0-1.5-1.75,6.33,6.33,0,0,0-2.25-.92,12.35,12.35,0,0,0-2.71-.28h-7.25V52.87l1.36,1.6h2.77V46.94h2l3.91,7.49h4.95Zm-.57-4a2,2,0,0,1-.83.62,3.62,3.62,0,0,1-1.13.24h-3.61V39.23h2.7a8.74,8.74,0,0,1,1.14.08,3.5,3.5,0,0,1,1,.3,1.83,1.83,0,0,1,1,1.79,1.91,1.91,0,0,1-.27,1.19Z" style="fill:#44bf98"/><path d="M257.8,35.94h-3.41l-8.1,18.73h4.55l1.57-4h7.27l1.61,4H266Zm-4.1,11.27L256,41.42l2.3,5.82Z" style="fill:#44bf98"/><path d="M327.8,50.94V47.08h8.12V43.27H327.8V39.78h8.59V35.94H323.67V54.7h13.2V50.94Z" style="fill:#44bf98"/></g></svg>